# WaveFront *.obj file (generated by Cinema 4D)

mtllib ./Bildschirm.mtl

v 11.532273 1821.435324 165.843476
v 14.275323 1821.435324 163.100425
v 14.275323 1824.178374 165.843476
v 14.275323 1794.607329 165.843476
v 14.275323 1797.350379 163.100425
v 11.532273 1797.350379 165.843476
v 89.668356 1818.055879 128.902387
v 122.010719 1821.435324 165.843476
v 14.275323 1794.607329 363.201814
v 14.275323 1797.350379 365.944864
v 11.532273 1797.350379 363.201814
v 11.532273 1821.435324 363.201814
v 14.275323 1821.435324 365.944864
v 14.275323 1824.178374 363.201814
v 122.010719 1797.350379 363.201814
v 119.267669 1797.350379 365.944864
v 119.267669 1794.607329 363.201814
v 119.267669 1824.178374 363.201814
v 119.267669 1821.435324 365.944864
v 122.010719 1821.435324 363.201814
v 93.047801 1818.055879 125.522942
v 122.010719 1797.350379 165.843476
v 119.267669 1794.607329 165.843476
v 119.267669 1824.178374 165.843476
v 93.047801 1821.435324 128.902387
v 93.047801 1797.350379 128.902387
v 93.047801 1800.729825 125.522942
v 89.668356 1800.729825 128.902387
v 119.267669 1800.729825 128.902387
v 115.888224 1800.729825 125.522942
v 115.888224 1821.435324 163.100425
v 119.267669 1823.824953 165.490054
v 121.657298 1821.435324 165.490054
v 119.267669 1818.055879 163.100425
v 119.267669 1800.729825 163.100425
v 121.657298 1797.350379 165.490054
v 119.267669 1794.960751 165.490054
v 115.888224 1797.350379 163.100425
v 93.047801 1797.350379 163.100425
v 86.288911 1797.350379 163.100425
v 89.668356 1800.729825 163.100425
v 89.668356 1818.055879 163.100425
v 86.288911 1821.435324 163.100425
v 93.047801 1821.435324 163.100425
v 119.267669 1818.055879 128.902387
v 115.888224 1818.055879 125.522942
v 115.888224 1821.435324 128.902387
v 115.888224 1797.350379 128.902387
v 98.234379 1821.435324 137.982441
v 110.701646 1821.435324 150.202735
v 98.234379 1821.435324 150.202735
v 110.701646 1821.435324 137.982441
v 95.935801 1821.435324 144.092588
v 113.000224 1821.435324 144.092588
v 104.468012 1821.435324 152.455779
v 104.468012 1846.555324 144.092588
v 104.468012 1821.435324 135.729398
v 98.964653 1821.435324 138.722263
v 109.971372 1821.435324 149.462913
v 98.964653 1821.435324 149.462913
v 109.971372 1821.435324 138.722263
v 96.944389 1821.435324 144.092588
v 111.991636 1821.435324 144.092588
v 104.468012 1821.435324 151.452012
v 104.468012 1821.435324 136.733165
v 98.964653 1824.075324 138.722263
v 109.971372 1824.075324 149.462913
v 98.964653 1824.075324 149.462913
v 109.971372 1824.075324 138.722263
v 96.944389 1824.075324 144.092588
v 111.991636 1824.075324 144.092588
v 104.468012 1824.075324 151.452012
v 104.468012 1824.075324 136.733165
v 98.964653 1846.555324 138.722263
v 109.971372 1846.555324 149.462913
v 98.964653 1846.555324 149.462913
v 109.971372 1846.555324 138.722263
v 96.944389 1846.555324 144.092588
v 111.991636 1846.555324 144.092588
v 104.468012 1846.555324 151.452012
v 104.468012 1846.555324 136.733165
v 21.555323 1824.178374 173.123476
v 21.555323 1824.178374 355.921814
v 111.987669 1824.178374 355.921814
v 111.987669 1824.178374 173.123476
v 21.555323 1819.938374 173.123476
v 21.555323 1819.938374 355.921814
v 111.987669 1819.938374 355.921814
v 111.987669 1819.938374 173.123476
# 89 vertices

vn 0.000000 0.707107 -0.707107
vn -0.000000 0.707107 -0.707107
vn -0.000000 0.707107 -0.707107
vn -0.000000 -0.707107 -0.707107
vn 0.000000 -0.707107 -0.707107
vn -0.000000 -0.707107 -0.707107
vn 0.707107 0.000000 -0.707107
vn 0.000000 0.000000 -1.000000
vn 0.000000 1.000000 0.000000
vn 0.000000 0.000000 1.000000
vn 1.000000 0.000000 0.000000
vn -1.000000 0.000000 0.000000
vn 0.000000 -1.000000 0.000000
vn -0.577350 -0.577350 0.577350
vn -0.577350 0.577350 0.577350
vn 0.577350 -0.577350 0.577350
vn 0.577350 0.577350 0.577350
vn 0.577350 -0.577350 -0.577350
vn 0.577350 0.577350 -0.577350
vn -0.577350 -0.577350 -0.577350
vn -0.577350 0.577350 -0.577350
vn -0.707107 0.000000 0.707107
vn 0.000000 0.707107 0.707107
vn 0.707107 0.000000 0.707107
vn 0.000000 -0.707107 0.707107
vn 0.707107 0.707107 0.000000
vn 0.707107 -0.707107 0.000000
vn -0.707107 0.000000 -0.707107
vn -0.707107 0.707107 0.000000
vn -0.707107 -0.707107 0.000000
vn 0.357407 0.357407 -0.862856
vn 0.357407 -0.357407 -0.862856
vn 0.577350 0.577350 -0.577350
vn 0.577350 -0.577350 -0.577350
vn -0.707107 0.707107 -0.000000
vn -0.707107 -0.707107 -0.000000
vn 0.935962 -0.000000 -0.352100
vn 0.935962 0.000000 -0.352100
vn 0.339913 -0.000000 -0.940457
vn 0.339913 0.000000 -0.940457
vn 0.935962 0.000000 0.352100
vn 0.339913 0.000000 0.940457
vn -0.339913 0.000000 0.940457
vn -0.339913 0.000000 0.940457
vn -0.935962 0.000000 0.352100
vn -0.935962 0.000000 0.352100
vn -0.935962 -0.000000 -0.352100
vn -0.935962 0.000000 -0.352100
vn -0.339913 -0.000000 -0.940457
vn -0.339913 0.000000 -0.940457
vn 0.935962 -0.000000 -0.352100
vn 0.339913 -0.000000 -0.940457
vn -0.339913 0.000000 0.940457
vn -0.935962 0.000000 0.352100
vn -0.935962 -0.000000 -0.352100
vn -0.339913 -0.000000 -0.940457
# 56 normals

vt 0.975171 1.092761 0.000000
vt 0.269140 0.907239 0.000000
vt 0.262159 0.907239 0.000000
vt 0.024829 1.092761 0.000000
vt 0.975171 0.907239 0.000000
vt 0.000000 1.000000 0.000000
vt 0.055418 0.907239 0.000000
vt 0.024829 1.068858 0.000000
vt 0.292748 0.178110 0.000000
vt 0.292748 0.142527 0.000000
vt 0.975171 -0.092761 0.000000
vt 0.024829 -0.092761 0.000000
vt 0.055309 -0.092761 0.000000
vt 0.024829 -0.068858 0.000000
vt 0.975171 0.092761 0.000000
vt 0.001493 349.476562 0.000047
vt 0.987121 0.900307 0.000000
vt 0.991474 0.754254 0.000000
vt 0.991474 0.245746 0.000000
vt 0.987121 0.099693 0.000000
vt 0.986477 0.907239 0.000000
vt 0.986477 0.092761 0.000000
vt 0.292748 0.207044 0.000000
vt 0.081559 0.964380 0.000000
vt 0.081559 1.011870 0.000000
vt 0.055418 1.021521 0.000000
vt 0.081559 0.916890 0.000000
vt 0.236018 0.964380 0.000000
vt 0.236018 0.916890 0.000000
vt 0.262159 1.021521 0.000000
vt 0.236018 1.011870 0.000000
vt 0.158789 0.916890 0.000000
vt 0.158789 1.011870 0.000000
vt 0.024829 0.092761 0.000000
vt 0.024829 0.907239 0.000000
vt 0.013523 0.092761 0.000000
vt 0.013523 0.907239 0.000000
vt 0.055418 0.207044 0.000000
vt 0.055418 0.792956 0.000000
vt 0.262159 0.792956 0.000000
vt 0.262159 0.207044 0.000000
vt 0.090724 0.049413 0.000000
vt 0.090724 0.950588 0.000000
vt 0.909276 0.950588 0.000000
vt 0.909276 0.049413 0.000000
vt 0.024829 0.013523 0.000000
vt 0.024829 0.986477 0.000000
vt 0.975171 0.986477 0.000000
vt 0.975171 0.013523 0.000000
vt -0.024829 0.092761 0.000000
vt 100000.000000 1.000000 0.000000
vt -0.024829 0.907239 0.000000
vt 1.024829 0.092761 0.000000
vt 1.024829 0.907239 0.000000
vt 0.977272 0.030664 0.000000
vt 0.977272 0.969336 0.000000
vt 0.022499 0.941185 0.000000
vt 0.022499 0.058815 0.000000
vt 0.977501 0.941185 0.000000
vt 0.977501 0.058815 0.000000
vt -0.005760 0.207044 0.000000
vt 0.024829 0.207044 0.000000
vt 0.024829 0.792956 0.000000
vt -0.005760 0.792956 0.000000
vt 0.093436 1.004430 0.000000
vt 0.090688 0.964380 0.000000
vt 0.158789 0.964380 0.000000
vt 0.158789 1.006170 0.000000
vt 0.323337 0.792956 0.000000
vt 0.323337 0.207044 0.000000
vt 0.262159 -0.021521 0.000000
vt 0.055418 -0.021521 0.000000
vt 0.024829 0.835947 0.000000
vt 0.024829 0.821890 0.000000
vt 0.024829 0.178110 0.000000
vt 0.024829 0.228942 0.000000
vt 0.024829 0.092762 0.000000
vt 0.000000 -0.823239 0.000000
vt 0.000000 0.041137 0.000000
vt 0.093436 0.924329 0.000000
vt 0.158789 0.922590 0.000000
vt 0.224141 0.924329 0.000000
vt 0.226889 0.964380 0.000000
vt 0.224141 1.004430 0.000000
# 84 texture coordinates

o Bildschirm
usemtl Bildschirm_1
f 88/45/9 89/44/9 86/43/9 87/42/9

usemtl Mat_1
f 32/8/3 31/7/3 44/3/2 43/2/1 2/5/1 3/1/1 24/4/2
f 5/15/5 40/10/5 39/9/4 38/13/6 37/14/6 23/12/4 4/11/5
f 33/17/7 8/21/7 22/22/7 36/20/7 35/19/7 34/18/7
f 42/2/8 41/23/8 40/10/8 5/15/8 2/5/8 43/2/8
f 54/24/9 50/27/9 31/7/9 47/26/9 52/25/9
f 53/28/9 49/31/9 25/30/9 44/3/9 51/29/9
f 55/32/9 51/29/9 44/3/9 31/7/9 50/27/9
f 57/33/9 52/25/9 47/26/9 25/30/9 49/31/9
f 16/15/10 19/5/10 13/35/10 10/34/10
f 22/22/11 8/21/11 20/37/11 15/36/11
f 27/41/8 21/40/8 46/39/8 30/38/8
f 11/22/12 12/21/12 1/37/12 6/36/12
f 23/49/13 17/48/13 9/47/13 4/46/13
f 9/12/14 10/34/14 11/50/14
f 12/52/15 13/35/15 14/4/15
f 15/53/16 16/15/16 17/11/16
f 18/1/17 19/5/17 20/54/17
f 37/55/18 36/20/18 22/22/18 23/49/18
f 32/56/19 24/48/19 8/21/19 33/17/19
f 6/53/20 5/15/20 4/11/20
f 3/1/21 2/5/21 1/54/21
f 10/34/22 13/35/22 12/52/22 11/50/22
f 13/35/23 19/5/23 18/1/23 14/4/23
f 19/5/24 16/15/24 15/53/24 20/54/24
f 16/15/25 10/34/25 9/12/25 17/11/25
f 20/37/26 8/21/26 24/48/26 18/57/26
f 22/22/27 15/36/27 17/58/27 23/49/27
f 2/5/28 5/15/28 6/53/28 1/54/28
f 1/37/29 12/21/29 14/59/29 3/47/29
f 11/22/30 6/36/30 4/46/30 9/60/30
f 45/64/11 34/63/11 35/62/11 29/61/11
f 81/68/9 56/67/9 79/66/9 77/65/9
f 28/70/12 41/23/12 42/2/12 7/69/12
f 48/72/13 38/13/13 39/9/13 26/71/13
f 31/74/31 32/8/31 33/73/31 34/63/31
f 35/62/32 36/77/32 37/76/32 38/75/32
f 39/9/8 40/10/8 41/23/8
f 42/2/8 43/2/8 44/3/8
f 45/64/33 46/39/33 47/26/33
f 48/72/34 30/38/34 29/61/34
f 28/70/20 27/41/20 26/71/20
f 25/30/21 21/40/21 7/69/21
f 30/38/7 46/39/7 45/64/7 29/61/7
f 46/39/1 21/40/1 25/30/1 47/26/1
f 21/40/28 27/41/28 28/70/28 7/69/28
f 27/41/5 30/38/5 48/72/5 26/71/5
f 29/61/27 35/62/27 38/13/27 48/72/27
f 34/63/26 45/64/26 47/26/26 31/7/26
f 44/3/35 25/30/35 7/69/35 42/2/35
f 41/23/36 28/70/36 26/71/36 39/9/36
f 80/81/9 75/80/9 79/66/9 56/67/9
f 78/83/9 76/82/9 80/81/9 56/67/9
f 81/68/9 74/84/9 78/83/9 56/67/9
f 63/66/9 54/24/9 52/25/9 61/65/9
f 61/65/9 52/25/9 57/33/9 65/68/9
f 59/80/9 50/27/9 54/24/9 63/66/9
f 64/81/9 55/32/9 50/27/9 59/80/9
f 60/82/9 51/29/9 55/32/9 64/81/9
f 62/83/9 53/28/9 51/29/9 60/82/9
f 58/84/9 49/31/9 53/28/9 62/83/9
f 65/68/9 57/33/9 49/31/9 58/84/9
f 71/66/37 63/66/38 61/65/38 69/65/37
f 69/65/39 61/65/40 65/68/40 73/68/39
f 67/80/41 59/80/41 63/66/41 71/66/41
f 72/81/42 64/81/42 59/80/42 67/80/42
f 68/82/43 60/82/44 64/81/44 72/81/43
f 70/83/45 62/83/46 60/82/46 68/82/45
f 66/84/47 58/84/48 62/83/48 70/83/47
f 73/68/49 65/68/50 58/84/50 66/84/49
f 79/66/51 71/66/37 69/65/37 77/65/51
f 77/65/52 69/65/39 73/68/39 81/68/52
f 75/80/41 67/80/41 71/66/41 79/66/41
f 80/81/42 72/81/42 67/80/42 75/80/42
f 76/82/53 68/82/43 72/81/43 80/81/53
f 78/83/54 70/83/45 68/82/45 76/82/54
f 74/84/55 66/84/47 70/83/47 78/83/55
f 81/68/56 73/68/49 66/84/49 74/84/56
f 82/43/9 3/47/9 14/46/9 83/42/9
f 85/44/9 24/48/9 3/47/9 82/43/9
f 84/45/9 18/49/9 24/48/9 85/44/9
f 83/42/9 14/46/9 18/49/9 84/45/9
f 86/43/11 82/43/11 83/42/11 87/42/11
f 89/44/10 85/44/10 82/43/10 86/43/10
f 88/45/12 84/45/12 85/44/12 89/44/12
f 87/42/8 83/42/8 84/45/8 88/45/8

