# WaveFront *.obj file (generated by Cinema 4D)

mtllib ./Knopf_Stativ_2.mtl

v -15.643205 1147.066654 126.684689
v -35.384874 1146.593179 128.087033
v -36.299932 1144.389676 129.671960
v -36.042467 1131.422846 127.761341
v -36.352724 1132.582105 129.763398
v -29.842224 1147.067077 118.486882
v -34.774019 1131.422846 128.493679
v -48.264426 1146.580607 120.716423
v -45.811428 1144.548233 124.442262
v -48.946705 1145.863581 120.321968
v -21.879215 1145.863581 135.949391
v -14.935765 1145.850584 127.092213
v -27.015133 1144.548233 135.294308
v -22.561963 1146.580607 135.555747
v -44.747888 1145.850584 109.880175
v -44.041243 1147.066654 110.289074
v -28.757226 1130.404163 119.100737
v -30.916338 1130.404163 117.854174
# 18 vertices

vn -0.045520 -0.995847 0.078843
vn 0.500000 0.000653 -0.866025
vn 0.500000 0.000653 -0.866025
vn -0.711777 0.648325 -0.270272
vn -0.353016 0.683553 0.638854
vn -0.367666 0.677768 0.636751
vn -0.199763 0.318504 0.926634
vn -0.518069 0.008940 0.855292
vn -0.499980 0.008942 0.865991
vn -0.481670 0.008940 0.876307
vn -0.702607 0.318504 0.636317
vn -0.797057 -0.512423 0.319567
vn -0.382222 0.671813 0.634487
vn 0.096697 -0.504884 0.857754
vn -0.261529 -0.852298 0.452981
vn 0.589951 0.648325 0.481281
vn -0.021881 0.999069 0.037190
vn -0.021574 0.999069 0.037367
vn -0.648711 -0.714883 -0.260992
vn -0.021267 0.999069 0.037545
vn 0.550419 -0.714887 0.431248
# 21 normals

vt 0.664136 0.179876 0.000000
vt 0.661702 0.158833 0.000000
vt 0.671631 0.158847 0.000000
vt 0.669198 0.179876 0.000000
vt 0.686553 0.318585 0.000000
vt 0.685573 0.339054 0.000000
vt 0.666667 0.340350 0.000000
vt 0.646780 0.318585 0.000000
vt 0.647760 0.339054 0.000000
vt 100000.000000 -99999.000000 0.000000
vt 0.647731 0.368230 0.000000
vt 0.644346 0.297557 0.000000
vt 0.666667 0.311172 0.000000
vt 0.652860 0.309905 0.000000
vt 0.688987 0.297557 0.000000
vt 0.680443 0.310227 0.000000
vt 0.685603 0.368230 0.000000
vt 0.666667 0.200127 0.000000
# 18 texture coordinates

o Knopf_Stativ_2
usemtl Mat_1
f 17/4/1 7/3/1 4/2/1 18/1/1
f 18/1/2 15/8/2 16/9/2 6/7/3 1/6/2 12/5/2 17/4/2
f 15/8/4 10/12/4 8/11/4 16/9/4
f 9/14/5 3/13/6 2/7/6 8/11/5
f 14/17/7 13/16/7 11/15/7
f 3/13/9 5/18/9 13/16/8
f 5/18/9 3/13/9 9/14/10
f 10/12/11 9/14/11 8/11/11
f 5/18/12 9/14/12 10/12/12 4/2/12
f 3/13/6 13/16/13 14/17/13 2/7/6
f 13/16/14 5/18/14 7/3/14 11/15/14
f 7/3/15 5/18/15 4/2/15
f 12/5/16 1/6/16 14/17/16 11/15/16
f 2/7/18 6/7/18 16/9/17 8/11/17
f 10/12/19 15/8/19 18/1/19 4/2/19
f 2/7/18 14/17/20 1/6/20 6/7/18
f 7/3/21 17/4/21 12/5/21 11/15/21

