# WaveFront *.obj file (generated by Cinema 4D)

mtllib ./Knopf_Wasser.mtl

v 59.500122 1039.799530 -36.258600
v 59.500122 1136.072750 -36.258600
v 59.500122 1078.329492 -9.451414
v 73.837470 1136.072750 -36.258600
v 59.500122 1072.582663 -3.231092
v 69.638158 1136.072750 -46.396636
v 78.455664 1078.329492 -17.303057
v 59.500122 1136.072750 -50.595948
v 82.854096 1072.582663 -12.904625
v 49.362085 1136.072750 -46.396636
v 86.307307 1078.329492 -36.258600
v 45.162773 1136.072750 -36.258600
v 92.527630 1072.582663 -36.258600
v 49.362085 1136.072750 -26.120564
v 78.455664 1078.329492 -55.214143
v 59.500122 1136.072750 -21.921252
v 82.854096 1072.582663 -59.612575
v 69.638158 1136.072750 -26.120564
v 49.362085 1078.329492 -26.120564
v 45.162773 1078.329492 -36.258600
v 49.362085 1078.329492 -46.396636
v 59.500122 1078.329492 -50.595948
v 69.638158 1078.329492 -46.396636
v 73.837470 1078.329492 -36.258600
v 69.638158 1078.329492 -26.120564
v 59.500122 1078.329492 -21.921252
v 59.500122 1078.329492 -63.065786
v 59.500122 1072.582663 -69.286108
v 40.544579 1078.329492 -55.214143
v 36.146147 1072.582663 -59.612575
v 32.692936 1078.329492 -36.258600
v 26.472614 1072.582663 -36.258600
v 40.544579 1078.329492 -17.303057
v 36.146147 1072.582663 -12.904625
v 86.471459 1045.640425 -36.258600
v 92.527630 1052.698773 -36.258600
v 78.571737 1045.640425 -55.330216
v 82.854096 1052.698773 -59.612575
v 59.500122 1045.640425 -63.229937
v 59.500122 1052.698773 -69.286108
v 40.428506 1045.640425 -55.330216
v 36.146147 1052.698773 -59.612575
v 32.528784 1045.640425 -36.258600
v 26.472614 1052.698773 -36.258600
v 40.428506 1045.640425 -17.186984
v 36.146147 1052.698773 -12.904625
v 59.500122 1045.640425 -9.287263
v 59.500122 1052.698773 -3.231092
v 78.571737 1045.640425 -17.186984
v 82.854096 1052.698773 -12.904625
# 50 vertices

vn 0.000000 -1.000000 -0.000000
vn 0.211653 -0.977345 0.000000
vn 0.149661 -0.977345 -0.149661
vn 0.923880 0.000000 -0.382683
vn 0.000000 1.000000 0.000000
vn 0.000000 -0.977345 -0.211653
vn 0.382683 0.000000 -0.923880
vn -0.149661 -0.977345 -0.149661
vn -0.382683 0.000000 -0.923880
vn -0.211653 -0.977345 0.000000
vn -0.923880 0.000000 -0.382683
vn -0.149661 -0.977345 0.149661
vn -0.923880 0.000000 0.382683
vn 0.000000 -0.977345 0.211653
vn -0.382683 0.000000 0.923880
vn 0.149661 -0.977345 0.149661
vn 0.382683 0.000000 0.923880
vn 0.923880 0.000000 0.382683
vn 0.382683 0.000000 -0.923880
vn 0.923880 0.000000 -0.382683
vn 0.723999 -0.621202 -0.299890
vn 0.653282 0.707107 -0.270598
vn 0.299890 -0.621202 -0.723999
vn 0.270598 0.707107 -0.653282
vn -0.299890 -0.621202 -0.723999
vn -0.270598 0.707107 -0.653282
vn -0.723999 -0.621202 -0.299890
vn -0.653282 0.707107 -0.270598
vn -0.723999 -0.621202 0.299890
vn -0.653282 0.707107 0.270598
vn -0.299890 -0.621202 0.723999
vn -0.270598 0.707107 0.653282
vn 0.299890 -0.621202 0.723999
vn 0.270598 0.707107 0.653282
vn 0.723999 -0.621202 0.299890
vn 0.653282 0.707107 0.270598
# 36 normals

vt 0.500000 0.500000 0.000000
vt 0.091684 0.500000 0.000000
vt 0.211277 0.788723 0.000000
vt 0.000000 1.000000 0.000000
vt 0.000000 0.049291 0.000000
vt 0.000000 0.219835 0.000000
vt 0.125000 0.219835 0.000000
vt 0.125000 0.049291 0.000000
vt 1.000000 0.500000 0.000000
vt 0.853553 0.853553 0.000000
vt 0.500000 0.908316 0.000000
vt 1.037201 -77283.000000 65536.000000
vt 0.250000 0.219835 0.000000
vt 0.250000 0.049291 0.000000
vt 0.500000 1.000000 0.000000
vt 0.788723 0.788723 0.000000
vt 0.375000 0.219835 0.000000
vt 0.375000 0.049291 0.000000
vt 0.146447 0.853553 0.000000
vt 0.908316 0.500000 0.000000
vt -100000.000000 1.000000 0.000000
vt 0.500000 0.219835 0.000000
vt 0.500000 0.049291 0.000000
vt 0.000000 0.500000 0.000000
vt 0.000000 1.000000 0.000000
vt 0.788723 0.211277 0.000000
vt 0.625000 0.219835 0.000000
vt 0.625000 0.049291 0.000000
vt 0.146447 0.146447 0.000000
vt 0.500000 0.091684 0.000000
vt 0.750000 0.219835 0.000000
vt 0.750000 0.049291 0.000000
vt 0.500000 0.000000 0.000000
vt -1.103119 -99999.000000 65536.000000
vt 0.211277 0.211277 0.000000
vt 0.000000 1.000000 0.000000
vt 0.875000 0.219835 0.000000
vt 0.875000 0.049291 0.000000
vt 0.853553 0.146447 0.000000
vt 65536.000000 -65535.000000 -100000.000000
vt -0.007550 6.471191 -0.194897
vt 1.000000 0.219835 0.000000
vt 1.000000 0.049291 0.000000
vt 0.500000 0.269126 0.000000
vt 0.625000 1.000000 0.000000
vt 0.625000 0.269126 0.000000
vt 0.375000 0.269126 0.000000
vt 0.375000 1.000000 0.000000
vt 0.250000 0.269126 0.000000
vt 0.250000 1.000000 0.000000
vt 0.125000 0.269126 0.000000
vt 0.125000 1.000000 0.000000
vt 0.000000 0.269126 0.000000
vt 0.875000 0.269126 0.000000
vt 0.875000 1.000000 0.000000
vt 1.000000 1.000000 0.000000
vt 1.000000 0.269126 0.000000
vt 0.750000 0.269126 0.000000
vt 0.750000 1.000000 0.000000
vt -0.078257 0.532415 0.000000
vt 0.103158 0.927306 0.000000
vt 0.114032 0.931810 0.000000
vt 0.521541 1.082761 0.000000
vt 0.532415 1.078257 0.000000
vt 0.927306 0.896842 0.000000
vt 0.931810 0.885968 0.000000
vt 1.082761 0.478459 0.000000
vt 1.078257 0.467585 0.000000
vt 0.896842 0.072694 0.000000
vt 0.885969 0.068190 0.000000
vt 0.478459 -0.082761 0.000000
vt 0.467585 -0.078257 0.000000
vt 0.072694 0.103158 0.000000
vt 0.068190 0.114032 0.000000
vt -0.082761 0.521541 0.000000
# 75 texture coordinates

o Knopf_Wasser
usemtl Mat_1
f 37/3/3 35/2/2 1/1/1
f 38/8/4 17/7/4 13/6/4 36/5/4
f 6/10/5 2/1/5 4/9/5
f 39/11/6 37/3/3 1/1/1
f 40/14/7 28/13/7 17/7/7 38/8/7
f 8/15/5 2/1/5 6/10/5
f 41/16/8 39/11/6 1/1/1
f 42/18/9 30/17/9 28/13/9 40/14/9
f 10/19/5 2/1/5 8/15/5
f 43/20/10 41/16/8 1/1/1
f 44/23/11 32/22/11 30/17/11 42/18/11
f 12/24/5 2/1/5 10/19/5
f 45/26/12 43/20/10 1/1/1
f 46/28/13 34/27/13 32/22/13 44/23/13
f 14/29/5 2/1/5 12/24/5
f 47/30/14 45/26/12 1/1/1
f 48/32/15 5/31/15 34/27/15 46/28/15
f 16/33/5 2/1/5 14/29/5
f 49/35/16 47/30/14 1/1/1
f 50/38/17 9/37/17 5/31/17 48/32/17
f 18/39/5 2/1/5 16/33/5
f 35/2/2 49/35/16 1/1/1
f 36/43/18 13/42/18 9/37/18 50/38/18
f 4/9/5 2/1/5 18/39/5
f 19/46/13 14/45/13 12/15/13 20/44/13
f 20/44/11 12/15/11 10/48/11 21/47/11
f 21/47/9 10/48/9 8/50/9 22/49/9
f 22/49/19 8/50/19 6/52/19 23/51/19
f 23/51/20 6/52/20 4/4/20 24/53/20
f 24/57/18 4/56/18 18/55/18 25/54/18
f 25/54/17 18/55/17 16/59/17 26/58/17
f 26/58/15 16/59/15 14/45/15 19/46/15
f 15/51/5 23/51/5 24/53/5 11/53/5
f 27/49/5 22/49/5 23/51/5 15/51/5
f 29/47/5 21/47/5 22/49/5 27/49/5
f 31/44/5 20/44/5 21/47/5 29/47/5
f 33/46/5 19/46/5 20/44/5 31/44/5
f 3/58/5 26/58/5 19/46/5 33/46/5
f 7/54/5 25/54/5 26/58/5 3/58/5
f 11/57/5 24/57/5 25/54/5 7/54/5
f 35/2/21 37/3/21 38/61/21 36/60/21
f 13/6/22 17/7/22 15/51/22 11/53/22
f 37/3/23 39/11/23 40/63/23 38/62/23
f 17/7/24 28/13/24 27/49/24 15/51/24
f 39/11/25 41/16/25 42/65/25 40/64/25
f 28/13/26 30/17/26 29/47/26 27/49/26
f 41/16/27 43/20/27 44/67/27 42/66/27
f 30/17/28 32/22/28 31/44/28 29/47/28
f 43/20/29 45/26/29 46/69/29 44/68/29
f 32/22/30 34/27/30 33/46/30 31/44/30
f 45/26/31 47/30/31 48/71/31 46/70/31
f 34/27/32 5/31/32 3/58/32 33/46/32
f 47/30/33 49/35/33 50/73/33 48/72/33
f 5/31/34 9/37/34 7/54/34 3/58/34
f 49/35/35 35/2/35 36/75/35 50/74/35
f 9/37/36 13/42/36 11/57/36 7/54/36

