# WaveFront *.obj file (generated by Cinema 4D)

mtllib ./Knopf_Kamera_befestigen.mtl

v 181.778434 1494.260167 -36.258648
v 145.903525 1489.435837 -40.209664
v 145.903525 1489.435837 -32.307631
v 145.903528 1499.086417 -40.083551
v 145.903528 1499.086411 -32.433745
v 145.903526 1494.249024 -30.187697
v 145.903526 1494.249028 -42.329599
v 145.903525 1488.208561 -36.258647
v 145.903528 1500.309687 -36.258649
v 153.343525 1489.435835 -40.209664
v 153.343525 1489.435835 -32.307631
v 153.343528 1499.086415 -40.083551
v 153.343528 1499.086409 -32.433745
v 153.343526 1494.249022 -30.187697
v 153.343526 1494.249026 -42.329599
v 153.343525 1488.208559 -36.258647
v 153.343528 1500.309685 -36.258649
v 179.764905 1499.506327 -36.258649
v 181.778436 1497.118304 -36.258648
v 179.765480 1489.011827 -36.258647
v 181.778433 1491.397081 -36.258647
v 179.836963 1494.250293 -44.452973
v 181.778434 1494.253705 -41.621410
v 179.836963 1494.250289 -28.064322
v 181.778434 1494.253703 -30.895886
v 179.777339 1498.443898 -31.088777
v 181.778435 1496.061458 -32.691859
v 179.777339 1498.443903 -41.428519
v 181.778435 1496.061462 -39.825438
v 179.780176 1490.077988 -30.918670
v 181.778434 1492.459289 -32.558305
v 179.780176 1490.077988 -41.598625
v 181.778434 1492.459289 -39.958989
v 153.710479 1488.237252 -42.351408
v 156.395937 1487.158286 -44.503701
v 153.710479 1488.237252 -30.165886
v 156.395938 1487.158286 -28.013592
v 153.706823 1500.274691 -42.136255
v 156.390123 1501.367866 -44.241226
v 153.706823 1500.274683 -30.381041
v 156.390123 1501.367858 -28.276071
v 153.811731 1494.246244 -25.988763
v 156.552994 1494.244929 -23.619654
v 153.811731 1494.246250 -46.528533
v 156.552994 1494.244935 -48.897641
v 153.598635 1487.163209 -36.258647
v 156.276242 1485.332580 -36.258647
v 153.598367 1501.354382 -36.258649
v 156.275046 1503.187142 -36.258650
# 49 vertices

vn 1.000000 -0.000001 -0.000000
vn 1.000000 -0.000001 -0.000000
vn 1.000000 -0.000001 -0.000000
vn 1.000000 -0.000001 -0.000000
vn 1.000000 -0.000001 -0.000000
vn 1.000000 -0.000001 -0.000000
vn 1.000000 -0.000001 -0.000000
vn 1.000000 -0.000001 -0.000000
vn 1.000000 -0.000001 -0.000000
vn -0.000000 -0.403078 0.915166
vn -0.000000 -0.954989 0.296641
vn 0.000000 0.421130 0.907000
vn 0.000000 0.952474 0.304619
vn -0.000000 -0.403078 -0.915166
vn -0.000000 -0.954989 -0.296641
vn 0.000000 0.952475 -0.304618
vn 0.000000 0.421129 -0.907001
vn -0.985633 -0.140465 0.093788
vn -0.992519 0.002239 0.122066
vn -0.976002 -0.217755 0.001953
vn -0.985926 0.140079 0.091261
vn -0.976009 0.217721 -0.001983
vn -0.992502 0.001458 -0.122217
vn -0.986296 -0.138266 -0.090020
vn -0.985241 0.142250 -0.095211
vn 0.162347 -0.540776 0.825351
vn 0.151956 -0.988387 0.000004
vn 0.148215 -0.968005 0.202483
vn 0.162867 0.560673 0.811862
vn 0.149283 0.966624 0.208213
vn 0.165302 -0.540469 -0.824966
vn 0.149401 -0.967824 -0.202476
vn 0.148103 0.966804 -0.208219
vn 0.159797 0.560997 -0.812249
vn -1.000000 0.000000 0.000000
vn -1.000000 0.000000 0.000000
vn -1.000000 0.000000 0.000000
vn 1.000000 -0.000000 -0.000000
vn 1.000000 -0.000000 -0.000000
vn 0.800434 -0.507714 0.318639
vn 0.792592 -0.381883 0.475355
vn 0.788507 -0.615021 0.002412
vn 0.763965 0.423943 0.486446
vn 0.788414 0.523172 0.323566
vn 0.788683 0.614795 -0.002498
vn 0.770057 -0.404060 -0.493708
vn 0.793296 -0.514423 -0.325655
vn 0.796883 0.514775 -0.316202
vn 0.789267 0.398436 -0.467234
vn -0.625105 -0.420660 0.657487
vn -0.516006 -0.838609 0.174565
vn -0.529758 -0.848149 0.000061
vn -0.624821 0.434554 0.648662
vn -0.532493 0.846434 -0.000093
vn -0.529106 0.829301 0.179740
vn -0.630641 -0.416920 -0.654577
vn -0.527229 -0.831624 -0.174445
vn -0.518497 0.835936 -0.179922
vn -0.619201 0.438301 -0.651523
# 59 normals

vt 0.512255 1.000000 0.000000
vt 0.515445 1.000000 0.000000
vt 0.500000 1.000000 0.000000
vt 0.512329 1.000000 0.000000
vt 0.484555 1.000000 0.000000
vt 0.487745 1.000000 0.000000
vt 0.487671 1.000000 0.000000
vt 0.520203 1.000000 0.000000
vt 0.522533 1.000000 0.000000
vt 0.521378 1.000000 0.000000
vt 0.477467 1.000000 0.000000
vt 0.479797 1.000000 0.000000
vt 0.478622 1.000000 0.000000
vt 0.477467 1.000000 0.000000
vt 0.000000 1.000000 0.000000
# 15 texture coordinates

o Knopf_Kamera_befestigen
usemtl Mat_1
f 21/3/4 1/3/3 25/2/2 31/1/1
f 19/3/6 27/4/5 25/2/2 1/3/3
f 21/3/4 33/6/8 23/5/7 1/3/3
f 23/5/7 29/7/9 19/3/6 1/3/3
f 14/9/10 6/9/10 3/8/10 11/8/10
f 11/8/11 3/8/11 8/3/11 16/3/11
f 13/10/12 5/10/12 6/9/12 14/9/12
f 17/3/13 9/3/13 5/10/13 13/10/13
f 10/12/14 2/12/14 7/11/14 15/11/14
f 16/3/15 8/3/15 2/12/15 10/12/15
f 12/13/16 4/13/16 9/3/16 17/3/16
f 15/11/17 7/11/17 4/13/17 12/13/17
f 42/9/19 14/9/19 11/8/18 36/8/18
f 36/8/18 11/8/18 16/3/20 46/3/20
f 40/10/21 13/10/21 14/9/19 42/9/19
f 48/3/22 17/3/22 13/10/21 40/10/21
f 34/12/24 10/12/24 15/11/23 44/14/23
f 46/3/20 16/3/20 10/12/24 34/12/24
f 38/13/25 12/13/25 17/3/22 48/3/22
f 44/14/23 15/11/23 12/13/25 38/13/25
f 24/9/26 43/9/26 37/8/26 30/8/26
f 30/8/28 37/8/28 47/3/27 20/3/27
f 26/10/29 41/10/29 43/9/29 24/9/29
f 18/3/30 49/3/30 41/10/30 26/10/30
f 32/12/31 35/12/31 45/11/31 22/11/31
f 20/3/27 47/3/27 35/12/32 32/12/32
f 28/13/33 39/13/33 49/3/33 18/3/33
f 22/11/34 45/11/34 39/13/34 28/13/34
f 5/10/35 9/3/36 8/3/36 3/8/35
f 2/12/37 8/3/36 9/3/36 4/13/37
f 2/12/38 7/11/38 4/13/38
f 6/9/39 3/8/39 5/10/39
f 31/1/40 25/2/41 24/9/41 30/8/40
f 21/3/42 31/1/40 30/8/40 20/3/42
f 25/2/43 27/4/44 26/10/44 24/9/43
f 27/4/44 19/3/45 18/3/45 26/10/44
f 23/5/46 33/6/47 32/12/47 22/11/46
f 33/6/47 21/3/42 20/3/42 32/12/47
f 19/3/45 29/7/48 28/13/48 18/3/45
f 29/7/48 23/5/49 22/11/49 28/13/48
f 42/9/50 36/8/50 37/8/50 43/9/50
f 36/8/51 46/3/52 47/3/52 37/8/51
f 40/10/53 42/9/53 43/9/53 41/10/53
f 48/3/54 40/10/55 41/10/55 49/3/54
f 34/12/56 44/14/56 45/11/56 35/12/56
f 46/3/52 34/12/57 35/12/57 47/3/52
f 38/13/58 48/3/54 49/3/54 39/13/58
f 44/14/59 38/13/59 39/13/59 45/11/59

