# WaveFront *.obj file (generated by Cinema 4D)

mtllib ./Knopf_Stativ_3.mtl

v 238.184807 1147.067073 -36.258600
v 238.184013 1145.850584 -53.470638
v 249.326279 1145.863590 -51.886024
v 238.184806 1147.066654 -52.654215
v 238.184807 1147.066654 -19.862985
v 251.326920 1144.548242 -47.110646
v 249.326747 1146.580616 -51.097924
v 249.326747 1146.580616 -21.419276
v 251.326921 1144.548242 -25.406555
v 249.326279 1145.863590 -20.631177
v 249.316857 1131.422851 -35.526261
v 238.184013 1145.850584 -19.046562
v 251.205816 1132.582112 -36.258600
v 249.316857 1131.422851 -36.990939
v 249.270107 1146.593183 -36.258600
v 251.100224 1144.389682 -36.258600
v 238.173934 1130.404160 -35.012037
v 238.173934 1130.404160 -37.505163
# 18 vertices

vn -1.000000 0.000652 0.000000
vn -1.000000 0.000652 0.000000
vn -1.000000 0.000652 0.000000
vn -1.000000 0.000652 0.000000
vn -1.000000 0.000652 0.000000
vn 0.675282 -0.512422 0.530488
vn 0.999739 0.008940 0.021015
vn 0.999960 0.008942 -0.000000
vn 0.999739 0.008940 -0.021015
vn 0.735275 0.677769 0.000032
vn 0.740593 0.671813 0.013771
vn 0.694489 -0.504883 -0.512619
vn 0.098331 -0.714883 -0.692296
vn 0.043147 0.999069 -0.000354
vn 0.043170 0.999068 -0.000001
vn 0.098263 -0.714887 0.692301
vn 0.043193 0.999067 0.000352
vn 0.729772 0.683554 -0.013706
vn 0.902369 0.318505 -0.290317
vn 0.117548 0.648952 0.751694
vn 0.091041 -0.995847 0.000000
vn 0.117547 0.648952 -0.751694
vn 0.902369 0.318505 0.290317
vn 0.523058 -0.852297 0.000000
# 24 normals

vt 1.000000 0.340350 0.000000
vt 0.981093 0.339053 0.000000
vt 0.980113 0.318585 0.000000
vt 0.997469 0.179876 0.000000
vt 0.002531 0.179876 0.000000
vt 0.000031 0.999969 0.003906
vt 0.019887 0.318585 0.000000
vt 0.018907 0.339054 0.000000
vt 0.977680 0.297557 0.000000
vt 0.986224 0.310227 0.000000
vt 1.000000 0.200127 0.000000
vt 0.013776 0.310227 0.000000
vt 0.000000 0.200127 0.000000
vt 0.000000 0.311172 0.000000
vt 0.000000 1.000000 0.000000
vt 1.000000 0.311172 0.000000
vt 0.000000 0.340350 0.000000
vt 0.018936 0.368230 0.000000
vt 0.022320 0.297557 0.000000
vt 0.981064 0.368230 0.000000
vt 0.000031 0.999969 0.000488
vt -0.002531 0.139421 0.000000
vt -0.004965 0.158833 0.000000
vt 0.000031 0.999969 0.125000
# 24 texture coordinates

o Knopf_Stativ_3
usemtl Mat_1
f 1/1/1 4/8/5 2/7/5 18/5/4 17/4/3 12/3/2 5/2/2
f 13/11/6 9/10/6 10/9/6 11/4/6
f 16/14/8 13/13/8 6/12/7
f 13/11/8 16/16/8 9/10/9
f 16/14/10 6/12/11 7/18/11 15/17/10
f 6/12/12 13/13/12 14/5/12 3/19/12
f 18/5/13 2/7/13 3/19/13 14/5/13
f 4/8/14 1/17/15 15/17/15 7/18/14
f 11/4/16 10/9/16 12/3/16 17/4/16
f 8/20/17 15/1/15 1/1/15 5/2/17
f 9/10/18 16/16/10 15/1/10 8/20/18
f 7/18/19 6/12/19 3/19/19
f 5/2/20 12/3/20 10/9/20 8/20/20
f 17/22/21 18/5/21 14/5/21 11/22/21
f 3/19/22 2/7/22 4/8/22 7/18/22
f 10/9/23 9/10/23 8/20/23
f 14/5/24 13/13/24 11/23/24

