# WaveFront *.obj file (generated by Cinema 4D)

mtllib ./Knopf_Hebel.mtl

v -72.266540 1490.635021 -44.262349
v -70.851777 1490.635021 -45.798144
v -70.892383 1492.166936 -44.262349
v -70.892383 1483.450826 -44.262349
v -70.851777 1484.982741 -45.798144
v -72.266540 1484.982741 -44.262349
v -46.652428 1493.270148 -47.786792
v -44.985249 1493.270148 -46.250998
v -70.892383 1483.450826 -30.600187
v -70.851777 1484.982741 -29.064393
v -72.266540 1484.982741 -30.600187
v -72.266540 1490.635021 -30.600187
v -70.851777 1490.635021 -29.064393
v -70.892383 1492.166936 -30.600187
v -44.985249 1482.347614 -28.611538
v -46.652428 1482.347614 -27.075744
v -46.693034 1480.815698 -28.611538
v -46.693034 1494.802063 -28.611538
v -46.652428 1493.270148 -27.075744
v -44.985249 1493.270148 -28.611538
v -46.652428 1482.347614 -47.786792
v -44.985249 1482.347614 -46.250998
v -46.693034 1480.815698 -46.250998
v -46.693034 1494.802063 -46.250998
# 24 vertices

vn -0.081902 0.000000 0.996641
vn 1.000000 0.000000 0.000000
vn -0.081902 0.000000 -0.996641
vn -1.000000 0.000000 0.000000
vn -0.108253 0.994124 0.000000
vn -0.108253 -0.994124 0.000000
vn -0.613920 -0.550698 0.565539
vn -0.613920 0.550698 0.565539
vn 0.540643 -0.602711 0.586894
vn 0.540643 0.602711 0.586894
vn 0.540643 -0.602711 -0.586894
vn 0.540643 0.602711 -0.586894
vn -0.613920 -0.550698 -0.565539
vn -0.613920 0.550698 -0.565539
vn -0.735494 0.000000 0.677532
vn -0.133867 0.699856 0.701628
vn 0.677532 0.000000 0.735494
vn -0.133867 -0.699856 0.701628
vn 0.667738 0.744397 0.000000
vn 0.677532 0.000000 -0.735494
vn 0.667738 -0.744397 0.000000
vn -0.133867 0.699856 -0.701628
vn -0.735494 0.000000 -0.677532
vn -0.133867 -0.699856 -0.701628
vn -0.744397 0.667738 0.000000
vn -0.744397 -0.667738 0.000000
# 26 normals

vt 0.051858 0.170816 0.000000
vt 0.051858 0.829184 0.000000
vt 0.938889 0.886720 0.000000
vt 0.938889 0.113280 0.000000
vt 0.079714 0.119644 0.000000
vt 0.079714 0.880356 0.000000
vt 0.920286 0.880356 0.000000
vt 0.920286 0.119644 0.000000
vt 0.061111 0.113280 0.000000
vt 0.061111 0.886720 0.000000
vt 0.948142 0.829184 0.000000
vt 0.948142 0.170816 0.000000
vt 0.086026 0.164228 0.000000
vt 0.086026 0.835772 0.000000
vt 0.913974 0.835772 0.000000
vt 0.913974 0.164228 0.000000
vt 0.050370 0.089329 0.000000
vt 0.050370 0.910672 0.000000
vt 0.937401 0.924209 0.000000
vt 0.937401 0.075791 0.000000
vt -0.051858 0.167113 0.000000
vt 0.039818 -0.154179 0.000000
vt 0.000000 1.000000 0.000000
vt 0.039818 1.154179 0.000000
vt -0.051858 0.832887 0.000000
vt 0.926849 -0.121615 0.000000
vt 1.061111 0.118304 0.000000
vt 1.061111 0.881696 0.000000
vt 0.926849 1.121615 0.000000
vt 0.952437 0.181343 0.000000
vt 0.952437 0.818657 0.000000
vt 0.960182 -0.154179 0.000000
vt 1.051858 0.167113 0.000000
vt 1.051858 0.832887 0.000000
vt 0.960182 1.154179 0.000000
vt 0.128164 0.928617 0.000000
vt 0.128164 0.071383 0.000000
vt 0.073151 1.121615 0.000000
vt 0.073151 -0.121615 0.000000
vt 0.867303 0.905854 0.000000
vt 0.867303 0.094146 0.000000
# 41 texture coordinates

o Knopf_Hebel
usemtl Mat_1
f 16/4/1 19/3/1 13/2/1 10/1/1
f 22/8/2 8/7/2 20/6/2 15/5/2
f 5/12/3 2/11/3 7/10/3 21/9/3
f 11/16/4 12/15/4 1/14/4 6/13/4
f 18/20/5 24/19/5 3/18/5 14/17/5
f 23/20/6 17/19/6 9/18/6 4/17/6
f 9/22/7 10/1/7 11/21/7
f 12/25/8 13/2/8 14/24/8
f 15/27/9 16/4/9 17/26/9
f 18/29/10 19/3/10 20/28/10
f 21/30/11 22/8/11 23/20/11
f 24/19/12 8/7/12 7/31/12
f 6/33/13 5/12/13 4/32/13
f 3/35/14 2/11/14 1/34/14
f 10/1/15 13/2/15 12/25/15 11/21/15
f 13/2/16 19/3/16 18/29/16 14/24/16
f 19/3/17 16/4/17 15/27/17 20/28/17
f 16/4/18 10/1/18 9/22/18 17/26/18
f 20/6/19 8/7/19 24/19/19 18/36/19
f 8/7/20 22/8/20 21/30/20 7/31/20
f 22/8/21 15/5/21 17/37/21 23/20/21
f 7/10/22 2/11/22 3/35/22 24/38/22
f 2/11/23 5/12/23 6/33/23 1/34/23
f 5/12/24 21/9/24 23/39/24 4/32/24
f 1/14/25 12/15/25 14/40/25 3/18/25
f 11/16/26 6/13/26 4/17/26 9/41/26

