# WaveFront *.obj file (generated by Cinema 4D)

mtllib ./Leg1_klein.mtl

v 42.838432 70.179041 -81.832730
v 36.196012 68.626025 -85.769945
v 43.976926 71.773393 -74.204026
v 31.830582 70.261711 -74.449752
v 30.692088 68.667359 -82.078456
v 38.473001 71.814727 -70.512537
v 47.484538 1.220936 -42.845907
v 47.110073 -2.782478 -46.178115
v 26.907587 -7.102410 -73.432464
v 30.652122 -9.439694 -70.641996
v 30.421505 -2.889859 -53.595482
v 31.102726 -5.818776 -53.256740
v 65.422926 1.086218 -54.877207
v 62.440665 -2.897611 -56.460362
v 44.845975 -7.237128 -85.463764
v 45.982714 -9.554828 -80.924243
v 61.909008 -3.126332 -74.714189
v 61.933598 -6.050318 -73.935045
v 50.387519 4.971235 -69.166711
v 43.880102 3.407993 -73.242702
v 51.705732 6.573449 -61.610315
v 40.009111 5.049178 -62.205900
v 38.690898 3.446964 -69.762297
v 46.516528 6.612420 -58.129909
v 0.307972 752.738852 -130.959454
v -0.062456 754.849992 -134.757135
v -7.472942 749.591484 -142.525373
v -4.783004 752.940537 -141.773982
v -6.334447 751.185835 -134.896669
v -4.092298 753.907803 -137.145777
v 46.785809 7.015106 -43.952575
v 46.475767 9.107710 -48.904344
v 26.208858 -1.308240 -74.539132
v 29.944969 2.421027 -73.476507
v 29.722776 2.904310 -54.702150
v 32.675757 5.805934 -57.478355
v 64.724197 6.880388 -55.983875
v 60.282274 9.004023 -58.164386
v 44.147246 -1.442958 -86.570432
v 43.751476 2.317340 -82.736549
v 61.210278 2.667837 -75.820857
v 57.551486 5.619116 -74.162538
v 5.811897 752.697517 -134.650943
v 2.460805 754.831042 -136.449489
v -1.969017 749.550149 -146.216862
v -2.259743 752.921588 -143.466336
v 4.673402 751.103166 -142.279647
v 1.770100 753.863776 -141.077694
# 48 vertices

vn -0.707814 0.705899 -0.026548
vn -0.433575 0.620551 -0.653398
vn -0.117628 0.975425 -0.186303
vn 0.250529 0.699813 -0.668952
vn 0.525077 0.809438 -0.262877
vn 0.250538 0.897273 0.363499
vn -0.433505 0.817508 0.379148
vn 0.554516 0.104370 0.825602
vn 0.550422 0.162889 0.818842
vn -0.517418 0.046850 0.854449
vn -0.525892 0.069584 0.847700
vn 0.986894 0.041470 -0.155949
vn 0.984241 0.061194 -0.165909
vn 0.517418 -0.046850 -0.854449
vn 0.526385 -0.073249 -0.847085
vn -0.986894 -0.041470 0.155949
vn -0.983885 -0.064864 0.166623
vn -0.554516 -0.104370 -0.825602
vn -0.550474 -0.162283 -0.818927
vn 0.117628 -0.975425 0.186303
vn 0.108968 -0.978799 0.173429
vn 0.126259 -0.971805 0.199131
vn 0.482494 -0.501923 -0.717825
vn -0.832735 -0.513982 0.205852
vn -0.264887 -0.884069 -0.385041
vn 0.936659 -0.347804 -0.041253
vn -0.534033 0.092273 0.840414
vn 0.544408 0.220841 0.809227
vn 0.981100 0.080888 -0.175786
vn 0.534914 -0.099586 -0.839017
vn -0.544553 -0.219642 -0.809456
vn -0.980216 -0.088215 0.177185
vn 0.443553 -0.597507 0.668017
vn -0.385425 -0.303018 0.871566
vn -0.048746 0.971599 -0.231559
vn -0.117330 0.958552 -0.259639
vn -0.185850 0.959053 -0.213722
vn -0.185710 0.972612 -0.139779
vn -0.117261 0.986775 -0.111912
vn -0.048739 0.986263 -0.157827
vn -0.546668 0.093018 0.832167
vn 0.544481 0.220242 0.809342
vn 0.978271 0.081565 -0.190612
vn -0.544481 -0.220242 -0.809342
vn -0.978271 -0.081565 0.190612
vn 0.546668 -0.093018 -0.832167
vn -0.468182 0.533996 -0.704027
vn -0.777895 0.628210 -0.015200
vn 0.287585 0.620209 -0.729819
vn 0.611543 0.751249 -0.248272
vn 0.301830 0.845464 0.440555
vn -0.453937 0.759251 0.466347
# 52 normals

vt 0.339041 0.000000 0.000000
vt 0.334966 0.000000 0.000000
vt 0.344707 0.000000 0.000000
vt 0.346492 0.000000 0.000000
vt 0.331700 0.000000 0.000000
vt 0.321959 0.000000 0.000000
vt 0.323829 0.000000 0.000000
vt 0.342838 0.000000 0.000000
vt 0.346916 0.000000 0.000000
vt 0.319750 0.000000 0.000000
vt 0.323969 0.000000 0.000000
vt 0.342698 0.000000 0.000000
vt 0.327626 0.000000 0.000000
vt 0.320175 0.000000 0.000000
vt 0.331686 0.000000 0.000000
vt 0.321730 0.000000 0.000000
vt 0.334980 0.000000 0.000000
vt 0.344936 0.000000 0.000000
vt 0.305234 0.000000 0.000000
vt 0.361433 0.000000 0.000000
vt 0.358838 0.000000 0.000000
vt 0.307828 0.000000 0.000000
vt 0.305819 0.000000 0.000000
vt 0.360848 0.000000 0.000000
vt 0.337851 0.000000 0.000000
vt 0.334865 0.000000 0.000000
vt 0.331802 0.000000 0.000000
vt 0.328816 0.000000 0.000000
vt 0.331810 0.000000 0.000000
vt 0.334856 0.000000 0.000000
# 30 texture coordinates

o Leg1_klein
usemtl Mat_1
f 36/4/1 34/3/1 33/2/1 35/1/1
f 34/3/2 40/6/2 39/5/2 33/2/2
f 48/10/3 30/9/3 26/8/3 44/7/3
f 28/12/3 30/9/3 48/10/3 46/11/3
f 40/6/4 42/14/4 41/13/4 39/5/4
f 42/14/5 38/16/5 37/15/5 41/13/5
f 38/16/6 32/18/6 31/17/6 37/15/6
f 32/18/7 36/4/7 35/1/7 31/17/7
f 25/20/8 6/20/9 3/19/9 43/19/8
f 29/21/10 4/21/11 6/20/11 25/20/10
f 43/19/12 3/19/13 1/22/13 47/22/12
f 47/22/14 1/22/15 2/23/15 45/23/14
f 27/24/16 5/24/17 4/21/17 29/21/16
f 45/23/18 2/23/19 5/24/19 27/24/18
f 18/28/20 14/27/21 8/26/21 12/25/20
f 18/28/20 12/25/20 10/30/22 16/29/22
f 18/28/23 16/29/23 15/5/23 17/13/23
f 10/30/24 12/25/24 11/1/24 9/2/24
f 16/29/25 10/30/25 9/2/25 15/5/25
f 14/27/26 18/28/26 17/13/26 13/15/26
f 24/20/27 6/20/11 4/21/11 22/21/27
f 21/19/28 3/19/9 6/20/9 24/20/28
f 19/22/29 1/22/13 3/19/13 21/19/29
f 20/23/30 2/23/15 1/22/15 19/22/30
f 23/24/31 5/24/19 2/23/19 20/23/31
f 22/21/32 4/21/17 5/24/17 23/24/32
f 8/26/33 14/27/33 13/15/33 7/17/33
f 12/25/34 8/26/34 7/17/34 11/1/34
f 32/18/36 24/20/36 22/21/35 36/4/35
f 38/16/37 21/19/37 24/20/36 32/18/36
f 42/14/38 19/22/38 21/19/37 38/16/37
f 40/6/39 20/23/39 19/22/38 42/14/38
f 34/3/40 23/24/40 20/23/39 40/6/39
f 36/4/35 22/21/35 23/24/40 34/3/40
f 7/17/41 31/17/41 35/1/41 11/1/41
f 13/15/42 37/15/42 31/17/42 7/17/42
f 17/13/43 41/13/43 37/15/43 13/15/43
f 9/2/44 33/2/44 39/5/44 15/5/44
f 11/1/45 35/1/45 33/2/45 9/2/45
f 15/5/46 39/5/46 41/13/46 17/13/46
f 28/12/47 46/11/47 45/23/47 27/24/47
f 30/9/48 28/12/48 27/24/48 29/21/48
f 46/11/49 48/10/49 47/22/49 45/23/49
f 48/10/50 44/7/50 43/19/50 47/22/50
f 44/7/51 26/8/51 25/20/51 43/19/51
f 26/8/52 30/9/52 29/21/52 25/20/52

