# WaveFront *.obj file (generated by Cinema 4D)

mtllib ./Leg1.mtl

v 34.390795 72.977674 -61.935676
v 13.838316 73.372447 -48.603053
v 35.422496 63.526161 -60.065434
v 44.886789 57.486980 -80.094820
v 0.757442 67.986054 -68.607967
v 34.819688 59.552147 -62.921999
v 14.870029 63.920820 -46.732789
v 21.309922 67.591281 -81.940590
v 37.124281 1098.224236 -202.336174
v 34.101750 1090.938922 -197.107325
v 8.970589 66.939134 -78.429419
v 36.731618 1119.185041 -203.016286
v 33.883744 1124.863729 -197.091604
v 26.177648 74.024594 -52.114223
v -25.845407 1088.613585 -175.934884
v -22.295847 1090.934574 -177.933373
v -18.521704 1088.553399 -180.124379
v 4.056377 70.741513 -56.502712
v 31.091860 70.222214 -74.040931
v -25.228770 1094.546842 -183.013344
v 74.100995 73.443991 -83.878511
v 51.973189 72.892328 -73.372560
v -22.284867 1120.758223 -177.914355
v 41.829760 67.519735 -95.018927
v 63.957566 68.071398 -105.524879
v -24.859871 1114.725929 -182.374393
v 16.009789 60.127132 -49.639928
v 1.789156 58.534426 -66.737703
v -73.139357 1098.224239 -138.675436
v 5.704174 55.883524 -65.400569
v 22.341625 58.139750 -80.070345
v 32.470739 57.590170 -71.541335
v 25.510971 55.718282 -77.161877
v 10.002303 57.487507 -76.559156
v 12.174807 55.058721 -73.138286
v -67.020338 1090.883555 -138.941771
v 51.293859 66.948210 -103.685931
v 64.636896 74.015515 -75.211508
v 43.411515 70.119024 -82.538763
v 72.519240 70.844702 -96.358676
v 34.678028 1090.928923 -172.120419
v 5.570304 1090.203245 -158.300506
v 26.795685 1094.099736 -150.973251
v 13.452647 1087.032432 -179.447674
v -8.133510 1094.180528 -130.003690
v -37.897695 1094.752240 -110.695331
v -56.841469 1086.951642 -139.666530
v -27.077285 1086.379930 -158.974889
v 43.491833 1094.855850 -157.143665
v 11.446255 1094.056929 -141.928902
v -3.243501 1086.276319 -173.277260
v 28.802077 1087.075239 -188.492022
v 27.209362 64.572966 -50.243959
v 25.731189 60.640918 -52.406163
v 5.088091 61.289886 -54.632448
v 8.303201 58.054382 -55.863583
v 26.116354 1088.155619 -181.286622
v 3.988549 1087.603956 -170.780670
v 14.131978 1092.976549 -149.134303
v 36.259783 1093.528212 -159.640254
v -18.969748 1090.306436 -143.604220
v -46.005231 1090.825735 -126.066000
v -23.883960 1094.108815 -121.677512
v -41.091019 1087.023355 -147.992708
v -28.751687 1087.675502 -151.503879
v -49.304166 1088.070275 -138.171256
v -36.223293 1093.456668 -118.166341
v -15.670813 1093.061895 -131.498964
v -7.526248 1097.616017 -152.351678
v 42.783811 1091.131006 -175.968924
v -45.882761 1085.050230 -155.320841
v -19.092218 1096.081940 -114.349379
v 9.736940 1085.064362 -187.377098
v 30.511392 1096.067807 -143.043826
v -53.533947 1090.970346 -121.182039
v 18.952998 57.849820 -62.772225
v -11.441033 1090.161824 -148.488182
v -2.535480 1090.001162 -154.452001
v 59.440652 57.849819 -87.004776
v 73.623079 61.393074 -94.530053
v 70.906744 58.135677 -92.448705
v 65.740735 64.563888 -73.382885
v 64.696731 60.633766 -75.788154
v 54.184573 55.065871 -98.221399
v 52.397697 57.496583 -101.857308
v 64.161528 55.950762 -99.670192
v 65.061404 58.619771 -103.696256
v 43.771209 55.653752 -88.896834
v 42.933598 58.068113 -93.190306
v 51.019273 59.473418 -73.529330
v 53.077027 63.440710 -71.543939
v 72.152911 60.183497 -82.616352
v 75.204834 63.992363 -82.049889
v 53.598289 1101.734709 -154.551477
v 58.606712 1110.184301 -153.296125
v 52.292868 1131.302248 -155.270416
v 58.539665 1127.187889 -153.412254
v 9.727290 1110.400041 -122.467673
v 4.968625 1102.423781 -124.456876
v 7.085265 1104.225947 -127.043795
v 10.189132 1102.469217 -127.509111
v 7.199432 1133.192547 -126.846052
v 9.653732 1129.246300 -122.595079
v -40.227716 1101.692620 -100.570759
v -41.410646 1110.184303 -95.551082
v -39.963448 1131.302220 -102.006436
v -41.477694 1127.187897 -95.667214
v -66.978051 1124.863646 -138.859630
v -73.532021 1119.185052 -139.355550
# 109 vertices

vn 0.378480 -0.849265 0.368106
vn 0.199836 -0.946116 0.254812
vn 0.432739 -0.395709 0.810031
vn 0.440414 -0.360354 0.822302
vn 0.006426 -0.824104 0.566401
vn 0.169532 -0.794244 0.583468
vn 0.087134 -0.992363 0.087312
vn 0.045344 -0.990840 -0.127201
vn -0.629881 -0.379233 -0.677814
vn -0.607900 -0.469787 -0.640123
vn -0.365484 -0.919587 -0.144160
vn -0.356173 -0.932650 0.057481
vn 0.117372 -0.946985 0.299071
vn 0.119677 -0.852975 0.508046
vn 0.485640 -0.374780 0.789743
vn 0.481131 -0.402432 0.778820
vn 0.419096 -0.786609 0.453437
vn 0.481700 -0.822094 0.303523
vn -0.131540 -0.990659 -0.035944
vn 0.032500 -0.992804 0.115257
vn -0.251006 -0.452842 -0.855529
vn -0.273198 -0.350623 -0.895783
vn 0.243891 -0.932047 -0.267964
vn 0.076159 -0.926450 -0.368634
vn -0.332289 -0.907554 0.256769
vn -0.783967 -0.173124 0.596175
vn -0.721223 -0.338103 0.604586
vn -0.156858 -0.831066 0.533596
vn 0.402283 -0.901948 -0.157031
vn 0.886394 -0.336657 -0.317754
vn 0.911040 -0.176605 -0.372582
vn 0.530984 -0.834846 0.145216
vn -0.672773 -0.148046 -0.724885
vn -0.675837 -0.079493 -0.732752
vn -0.625910 -0.172835 -0.760503
vn -0.990984 -0.027016 0.131226
vn 0.962723 0.028906 -0.268942
vn 0.766675 0.143181 0.625866
vn 0.768833 0.080986 0.634300
vn 0.696111 0.170707 0.697344
vn 0.263525 0.146931 0.953397
vn 0.268990 0.078662 0.959925
vn -0.635821 0.051696 0.770103
vn -0.631682 0.021844 0.774920
vn -0.961711 -0.039839 0.271155
vn -0.962723 -0.028906 0.268942
vn -0.766675 -0.143181 -0.625866
vn -0.768833 -0.080986 -0.634300
vn 0.631682 -0.021844 -0.774920
vn -0.354337 -0.173144 -0.918949
vn -0.268990 -0.078662 -0.959925
vn -0.263525 -0.146931 -0.953397
vn 0.672773 0.148046 0.724885
vn 0.675837 0.079493 0.732752
vn 0.988880 0.057253 -0.137256
vn 0.990984 0.027016 -0.131226
vn 0.111746 -0.975638 0.188793
vn 0.112250 -0.975473 0.189349
vn 0.115969 -0.975453 0.187197
vn 0.115466 -0.975619 0.186640
vn 0.116473 -0.975286 0.187753
vn 0.112753 -0.975306 0.189906
vn -0.456832 -0.777028 0.433050
vn -0.422542 -0.746284 0.514314
vn -0.526560 -0.725494 0.443162
vn -0.392256 -0.809009 0.437767
vn -0.589636 -0.754503 0.288192
vn -0.455314 -0.818496 0.350361
vn -0.309153 -0.861207 0.403420
vn -0.734086 0.023172 0.678661
vn 0.130050 0.140654 0.981480
vn 0.136450 0.078406 0.987539
vn 0.735462 -0.033834 -0.676720
vn 0.734086 -0.023172 -0.678661
vn 0.532561 0.220085 0.817277
vn 0.654731 0.214977 0.724647
vn -0.130050 -0.140654 -0.981480
vn -0.136450 -0.078406 -0.987539
vn 0.113916 -0.975403 0.188713
vn 0.106472 -0.975403 0.193010
vn -0.806176 0.002483 0.591671
vn -0.306666 -0.000513 -0.951817
vn -0.083403 0.984784 -0.152464
vn -0.081534 0.984429 -0.155731
vn -0.085271 0.985124 -0.149195
vn -0.670626 -0.000335 -0.741796
vn 0.915540 0.002469 -0.402219
vn -0.119203 0.975010 -0.187472
vn -0.118399 0.975263 -0.186668
vn -0.117594 0.975514 -0.185862
vn -0.395069 -0.219725 -0.891987
vn -0.598022 -0.218914 -0.771004
vn -0.123135 -0.202347 -0.971542
vn 0.736751 -0.044491 -0.674699
vn 0.123135 0.202347 0.971542
vn 0.985830 0.087437 -0.143156
vn 0.666500 0.215893 0.713560
vn -0.666500 -0.215893 -0.713560
vn 0.533483 0.007840 0.845774
vn 0.499985 0.007846 0.865999
vn 0.465720 0.007840 0.884897
vn 0.761494 0.204810 0.614964
vn 0.256812 0.214504 0.942356
vn -0.639368 0.081499 0.764570
vn -0.960579 -0.050768 0.273334
vn -0.761494 -0.204810 -0.614964
vn -0.256812 -0.214504 -0.942356
vn 0.654396 -0.749841 -0.097489
vn 0.611827 -0.772056 -0.172037
vn 0.654614 -0.723355 -0.219632
vn 0.562401 -0.819423 -0.110685
vn 0.553076 -0.756023 -0.350052
vn 0.540336 -0.813564 -0.214826
vn 0.515838 -0.853403 -0.074927
vn -0.335547 -0.850808 -0.404393
vn -0.196637 -0.851856 -0.485463
vn 0.535311 -0.552923 0.638529
vn 0.314756 -0.556797 0.768704
vn -0.115815 -0.833464 -0.540300
vn -0.394173 -0.836222 -0.381263
vn -0.006519 -0.832795 -0.553544
vn 0.601512 -0.721174 -0.343644
vn 0.174866 -0.530391 0.829523
vn 0.777638 -0.627887 0.032213
vn 0.551837 -0.537055 0.638003
vn -0.463170 -0.834536 -0.298366
vn -0.603944 -0.725612 0.329755
vn -0.376814 -0.632085 0.677111
vn 0.256881 -0.538037 0.802826
vn 0.617811 -0.530091 0.580787
vn 0.032197 -0.998673 0.040203
vn 0.179137 -0.928072 0.326485
vn 0.424433 -0.430488 0.796578
vn -0.579777 -0.555595 -0.595964
vn 0.476188 -0.429720 0.767194
vn -0.225661 -0.549372 -0.804529
vn -0.635958 -0.492525 0.594118
vn 0.835839 -0.486868 -0.253639
vn -0.621756 0.710839 0.328827
vn -0.289207 0.631793 -0.719164
vn -0.386401 0.634911 -0.669016
vn 0.313527 0.778975 0.543046
vn 0.268048 0.777941 0.568294
vn -0.478969 0.630429 -0.610859
vn 0.597518 0.708943 -0.374662
vn 0.358157 0.777901 0.516327
# 146 normals

vt 0.338257 0.000000 0.000000
vt 0.351760 0.000000 0.000000
vt 0.388885 0.000000 0.000000
vt -69.041016 95.937500 -97476.000000
vt 0.438306 0.000000 0.000000
vt 0.000000 1.000000 0.000000
vt 0.426010 0.000000 0.000000
vt 0.155998 1.000162 24582.500000
vt 0.388932 0.000000 0.000000
vt 0.350757 0.000000 0.000000
vt 0.339817 0.000000 0.000000
vt 0.000000 1.000000 0.000000
vt 0.437998 0.000000 0.000000
vt 0.427108 0.000000 0.000000
vt 0.277782 0.000000 0.000000
vt 0.314907 0.000000 0.000000
vt 0.326243 0.000000 0.000000
vt 0.228347 0.000000 0.000000
vt 0.000000 1.204939 0.000000
vt 0.240657 0.000000 0.000000
vt 0.000000 1.000000 0.000000
vt 0.322033 0.000000 0.000000
vt 0.315910 0.000000 0.000000
vt 0.277734 0.000000 0.000000
vt -100000.000000 -1.169407 0.000000
vt 0.228642 0.000000 0.000000
vt 0.239558 0.000000 0.000000
vt 0.426559 0.000000 0.000000
vt 0.000000 -2.059334 0.000000
vt 0.240108 0.000000 0.000000
vt 0.000000 1.000000 0.000000
vt -100000.000000 -1.224349 0.000000
vt 0.277739 0.000000 0.000000
vt 0.305819 0.000000 0.000000
vt 0.307828 0.000000 0.000000
vt 0.361433 0.000000 0.000000
vt 0.358838 0.000000 0.000000
vt 0.388890 0.000000 0.000000
vt 0.416349 0.000000 0.000000
vt 0.418979 0.000000 0.000000
vt 0.417004 0.000000 0.000000
vt 0.388928 0.000000 0.000000
vt 0.360848 0.000000 0.000000
vt 0.277777 0.000000 0.000000
vt 0.250317 0.000000 0.000000
vt 0.247688 0.000000 0.000000
vt 0.360268 0.000000 0.000000
vt 0.306411 0.000000 0.000000
vt 0.305970 0.000000 0.000000
vt 0.360686 0.000000 0.000000
vt 0.333333 0.000000 0.000000
vt 0.329764 0.000000 0.000000
vt 0.315408 0.000000 0.000000
vt 0.333762 0.000000 0.000000
vt 0.000000 4.059334 0.000000
vt 0.305234 0.000000 0.000000
vt 0.249662 0.000000 0.000000
vt 0.388924 0.000000 0.000000
vt 0.388909 0.000000 0.000000
vt 0.444444 0.419453 0.000000
vt 0.444444 0.407579 0.000000
vt 0.444444 0.093005 0.000000
vt 0.444444 0.080959 0.000000
vt 0.222222 0.080959 0.000000
vt 0.222222 0.419453 0.000000
vt 0.333333 0.417318 0.000000
vt 0.336468 0.000000 0.000000
vt 0.333333 0.500000 0.000000
vt 0.435043 0.500000 0.000000
vt 0.435678 0.500000 0.000000
vt 0.277758 0.000000 0.000000
vt 0.277743 0.000000 0.000000
vt 0.230990 0.500000 0.000000
vt 0.231623 0.500000 0.000000
vt 0.222222 0.093005 0.000000
vt 0.222222 0.407579 0.000000
vt 0.249662 0.000000 0.000000
vt 0.277739 0.000000 0.000000
vt 0.247688 0.000000 0.000000
vt 0.333893 0.000000 0.000000
vt 0.333333 0.413630 0.000000
vt 0.351258 0.000000 0.000000
vt 0.409980 0.000000 0.000000
vt 0.412599 0.000000 0.000000
vt 0.277773 0.000000 0.000000
vt 0.257075 0.000000 0.000000
vt 0.254068 0.000000 0.000000
vt 0.409591 0.000000 0.000000
vt 0.388894 0.000000 0.000000
vt 0.256687 0.000000 0.000000
vt 0.388890 0.000000 0.000000
vt 0.418979 0.000000 0.000000
vt 0.388928 0.000000 0.000000
vt 100000.000000 -2.432673 0.000000
# 94 texture coordinates

o Leg1
usemtl Mat_1
f 72/3/6 45/2/2 99/1/1 104/5/3 46/8/5
f 71/9/7 47/12/12 36/13/12 15/11/10 48/10/7
f 74/15/13 49/21/18 94/18/18 101/17/16 50/16/13
f 73/24/24 51/23/20 17/22/19 10/26/21 52/12/23
f 75/28/25 46/29/5 104/5/5 36/13/27 47/14/12
f 70/30/32 52/27/23 10/26/23 94/18/30 49/12/18
f 24/34/35 58/34/34 44/33/34 37/33/33
f 39/35/36 42/35/36 58/34/36 24/34/36
f 19/37/37 61/37/37 68/36/37 1/36/37
f 1/36/40 68/36/39 63/38/39 14/38/38
f 14/38/41 63/38/42 67/39/42 2/39/41
f 2/39/43 67/39/44 62/40/44 18/40/43
f 18/40/45 62/40/46 66/41/46 5/41/45
f 5/41/47 66/41/48 64/42/48 11/42/47
f 8/43/49 65/43/49 61/37/49 19/37/49
f 11/42/52 64/42/51 65/43/51 8/43/50
f 21/45/53 60/45/54 43/44/54 38/44/53
f 40/46/55 41/46/56 60/45/56 21/45/55
f 88/48/60 4/35/59 32/37/58 33/47/57
f 6/50/62 32/37/58 4/35/59 90/49/61
f 50/16/64 101/12/66 100/52/64 69/51/63 78/53/65
f 78/53/65 69/51/63 16/54/69 17/22/68 51/23/67
f 22/56/70 59/56/70 42/35/70 39/35/70
f 38/44/71 43/44/72 59/56/72 22/56/71
f 25/57/73 57/57/74 41/46/74 40/46/73
f 1/36/40 3/36/76 91/56/75 22/56/75
f 37/33/77 44/33/78 57/57/78 25/57/77
f 44/33/79 73/24/20 52/27/79 57/57/79
f 57/57/79 52/27/79 70/30/79 41/46/79
f 43/44/79 74/15/13 50/16/13 59/56/79
f 59/56/79 50/16/13 78/53/79 42/35/79
f 32/37/58 76/59/80 35/58/80 33/47/57
f 29/63/81 105/62/81 107/61/81 109/60/81
f 20/67/82 26/66/82 12/65/82 9/64/82
f 108/70/84 106/69/84 102/68/83 23/68/83
f 84/72/79 79/71/79 4/35/59 88/48/60
f 23/68/83 102/68/83 96/74/85 13/73/85
f 29/63/86 109/60/86 26/66/86 20/67/86
f 12/65/87 97/76/87 95/75/87 9/64/87
f 22/56/88 39/35/89 19/37/89 1/36/88
f 8/43/90 19/37/89 39/35/89 24/34/90
f 24/34/35 89/34/92 31/43/91 8/43/50
f 85/78/93 37/33/77 25/57/77 87/77/93
f 87/77/94 25/57/73 40/46/73 80/79/94
f 82/44/95 38/44/71 22/56/71 91/56/95
f 41/46/79 70/30/79 49/20/79 60/45/79
f 80/79/96 40/46/55 21/45/55 93/45/96
f 60/45/79 49/20/79 74/15/13 43/44/79
f 93/45/97 21/45/53 38/44/53 82/44/97
f 89/34/92 24/34/35 37/33/33 85/78/98
f 97/76/99 103/81/100 98/80/100 95/75/99
f 98/80/100 103/81/100 107/61/101 105/62/101
f 58/34/79 51/23/20 73/24/20 44/33/79
f 42/35/79 78/53/79 51/23/20 58/34/79
f 61/37/80 77/82/80 45/2/2 68/36/80
f 68/36/80 45/2/2 72/3/2 63/38/80
f 63/38/80 72/3/2 46/7/80 67/39/80
f 67/39/80 46/7/80 75/28/80 62/40/80
f 62/40/80 75/28/80 47/14/80 66/41/80
f 66/41/80 47/14/80 71/9/7 64/42/80
f 56/84/80 30/83/80 35/58/80 76/59/80
f 81/87/79 92/86/79 83/85/79 79/71/79
f 54/89/80 27/88/80 56/84/80 76/59/80
f 32/37/58 6/50/62 54/89/80 76/59/80
f 83/85/79 90/49/61 4/35/59 79/71/79
f 84/72/79 86/90/79 81/87/79 79/71/79
f 3/36/76 1/36/40 14/38/38 53/91/102
f 53/91/103 14/38/41 2/39/41 7/39/103
f 7/39/104 2/39/43 18/40/43 55/92/104
f 55/92/105 18/40/45 5/41/45 28/41/105
f 28/41/106 5/41/47 11/42/47 34/93/106
f 34/93/107 11/42/52 8/43/50 31/43/91
f 65/43/80 48/10/7 77/82/80 61/37/80
f 64/42/80 71/9/7 48/10/7 65/43/80
f 77/82/110 69/51/109 100/52/108 99/94/111 45/2/108
f 48/10/112 15/11/113 16/54/114 69/51/109 77/82/110
f 88/48/115 33/47/116 31/43/116 89/34/115
f 6/50/117 90/49/118 91/56/118 3/36/117
f 33/47/116 35/58/119 34/93/119 31/43/116
f 84/72/120 88/48/115 89/34/115 85/78/120
f 85/78/121 87/77/121 86/90/121 84/72/121
f 87/77/122 80/79/122 81/87/122 86/90/122
f 82/44/123 91/56/118 90/49/118 83/85/123
f 80/79/124 93/45/124 92/86/124 81/87/124
f 93/45/125 82/44/125 83/85/125 92/86/125
f 35/58/126 30/83/126 28/41/126 34/93/126
f 30/83/127 56/84/127 55/92/127 28/41/127
f 56/84/128 27/88/128 7/39/128 55/92/128
f 27/88/129 54/89/129 53/91/129 7/39/129
f 54/89/130 6/50/117 3/36/117 53/91/130
f 98/80/131 99/1/131 100/52/131 101/17/131
f 20/67/132 17/22/132 16/54/132 15/11/132
f 104/5/3 99/1/3 98/80/133 105/62/133
f 15/11/10 36/13/10 29/63/134 20/67/134
f 101/17/16 94/18/16 95/75/135 98/80/135
f 10/26/21 17/22/21 20/67/136 9/64/136
f 36/13/27 104/5/27 105/62/137 29/63/137
f 94/18/30 10/26/30 9/64/138 95/75/138
f 109/60/139 107/61/139 106/69/139 108/70/139
f 12/65/140 26/66/141 23/68/141 13/73/140
f 102/68/142 106/69/143 107/61/143 103/81/142
f 108/70/144 23/68/141 26/66/141 109/60/144
f 13/73/145 96/74/145 97/76/145 12/65/145
f 96/74/146 102/68/142 103/81/142 97/76/146

