# WaveFront *.obj file (generated by Cinema 4D)

mtllib ./Leg2.mtl

v 58.539605 1127.187870 80.895157
v 52.292527 1131.302189 82.753443
v 58.606756 1110.184263 80.778849
v 53.551950 1101.758596 81.897125
v 9.653691 1129.246296 50.077951
v 7.199363 1133.192541 54.328972
v 5.039837 1102.443512 51.997181
v 7.098006 1104.231647 54.504526
v 10.077196 1102.496047 54.949633
v 9.727354 1110.400013 49.950363
v -41.477750 1127.187870 23.150110
v -39.963596 1131.302225 29.489124
v 29.212226 1087.151304 115.829140
v -3.087079 1086.215514 101.168664
v 11.036199 1093.980833 69.557223
v 43.335504 1094.916623 84.217699
v -27.384090 1086.334777 86.516530
v -56.907609 1087.004593 66.845141
v -37.590795 1094.797360 38.119127
v -8.067277 1094.127544 57.790516
v 32.213128 57.545518 -1.372981
v 66.281503 58.672209 28.392599
v 65.321547 55.992052 24.387874
v 44.744478 55.594657 14.020653
v 30.110878 1096.056978 70.340517
v 10.137547 1085.075159 115.045846
v -18.828393 1096.076387 42.005470
v -46.146492 1085.055750 82.630187
v 42.963270 1091.227772 103.059704
v -53.363723 1091.039700 48.408056
v 18.804682 57.849722 -10.306968
v -11.611162 1090.092437 76.227601
v -2.714845 1089.904365 82.326660
v 60.377566 57.849722 11.801655
v 43.978455 58.026318 18.269439
v 51.699088 59.410906 -1.506418
v 53.730718 63.388452 -3.558580
v 76.033777 64.034244 6.564562
v 45.708465 57.424723 5.143431
v 73.004768 60.216472 7.190898
v 66.420382 64.556849 -1.939727
v 65.430961 60.628201 0.490889
v 53.591883 57.503431 26.773672
v 55.324172 55.071244 23.112421
v -8.060841 1097.374145 80.760420
v 74.675234 61.455140 19.075197
v 26.399583 1088.208137 108.668808
v 4.096567 1087.561964 98.545593
v 13.848842 1092.924000 76.717555
v 36.151857 1093.570173 86.840770
v 26.538461 1094.092777 78.336482
v 13.709963 1087.039359 107.049881
v 34.793313 1090.991068 99.351405
v 5.455111 1090.141069 86.034958
v -28.963523 1087.644316 79.027290
v -49.349828 1088.106831 65.443986
v -36.011362 1093.487821 45.608367
v -15.625057 1093.025306 59.191671
v -23.714489 1094.105244 49.271579
v -41.260396 1087.026893 75.364078
v -45.895888 1090.870273 53.383841
v -19.078997 1090.261864 71.251816
v 71.934454 58.184554 17.047262
v 65.177668 68.123838 30.221214
v 42.874653 67.477665 20.097999
v 52.626927 72.839700 -1.730039
v 74.929943 73.485873 8.393176
v 65.316547 74.008478 -0.111112
v 52.488048 66.955060 28.602287
v 73.571399 70.906769 20.903811
v 44.233197 70.056769 7.587364
v 20.949728 67.560017 8.902080
v 0.563423 68.022532 -4.681224
v 13.901889 73.403521 -24.516843
v 34.288195 72.941006 -10.933539
v 26.198762 74.020944 -20.853631
v 8.652856 66.942594 5.238868
v 4.017363 70.785974 -16.741369
v 30.834255 70.177565 1.126606
v 8.240988 58.089387 -17.345511
v 5.049072 61.334345 -18.611626
v 11.893009 55.061423 -0.028626
v 9.684565 57.490965 3.368612
v 25.716356 60.638022 -20.585311
v 27.230471 64.569315 -22.723888
v 35.319889 63.489518 -12.803768
v 34.686026 59.524043 -10.007615
v 16.028402 60.151592 -23.471332
v 14.933599 63.951892 -26.387100
v 5.519840 55.912240 -7.844060
v 1.595132 58.570903 -6.551481
v 21.981429 58.108471 7.031840
v 25.235160 55.697664 4.116105
v 33.884097 1124.863645 124.575244
v 36.731608 1119.185049 130.499104
v 34.260022 1090.971920 124.547207
v 37.124286 1098.224226 129.818966
v -22.284878 1120.758223 105.397174
v -24.859878 1114.725927 109.857205
v -25.228762 1094.546846 110.496130
v -25.944985 1088.587822 103.343691
v -22.269667 1090.946409 105.370828
v -18.351405 1088.516270 107.680888
v -66.977169 1124.863737 66.342361
v -73.532029 1119.185049 66.838363
v -67.056129 1090.907546 66.310865
v -73.139351 1098.224227 66.158225
v -40.126764 1101.711132 28.028701
v -41.410599 1110.184263 23.033802
# 109 vertices

vn 0.465866 -0.603299 -0.647302
vn 0.474201 -0.516805 -0.712774
vn 0.113840 -0.855044 -0.505905
vn 0.115375 -0.947479 -0.298282
vn 0.032753 -0.993076 -0.112818
vn -0.032705 -0.990494 -0.133611
vn -0.179717 -0.980878 -0.074705
vn -0.273537 -0.334257 0.901915
vn -0.249879 -0.450672 0.857004
vn 0.086538 -0.929924 0.357425
vn 0.253423 -0.931361 0.261428
vn 0.200037 -0.946500 -0.253227
vn 0.379181 -0.850912 -0.363553
vn 0.440776 -0.366453 -0.819408
vn 0.433205 -0.399123 -0.808106
vn 0.175324 -0.791057 -0.586081
vn 0.013176 -0.823315 -0.567432
vn 0.040786 -0.990783 0.129171
vn 0.085613 -0.992552 -0.086666
vn -0.612300 -0.459108 0.643668
vn -0.634013 -0.366673 0.680866
vn -0.355134 -0.932475 -0.066115
vn -0.361857 -0.922731 0.132766
vn 0.410914 -0.898273 0.155740
vn 0.912614 -0.179084 0.367511
vn 0.887003 -0.339033 0.313500
vn 0.525557 -0.836806 -0.153446
vn -0.334314 -0.905205 -0.262372
vn -0.720957 -0.335667 -0.606258
vn -0.781502 -0.174526 -0.598996
vn -0.149336 -0.832784 -0.533076
vn 0.438622 0.220045 -0.871316
vn 0.276427 0.213686 -0.936977
vn 0.224492 0.169735 -0.959580
vn -0.092534 0.974883 0.202583
vn -0.092890 0.975051 0.201613
vn -0.093246 0.975217 0.200643
vn -0.592319 -0.174670 0.786542
vn -0.553349 -0.220155 0.803328
vn -0.358224 -0.218603 0.907683
vn -0.333411 -0.172628 0.926842
vn 0.098990 -0.975322 -0.197355
vn 0.098893 -0.975524 -0.196398
vn 0.102620 -0.975568 -0.194258
vn 0.102716 -0.975367 -0.195215
vn 0.102523 -0.975768 -0.193302
vn 0.098797 -0.975726 -0.195442
vn 0.608551 -0.774882 0.170949
vn 0.660864 -0.743146 0.104852
vn 0.652101 -0.725536 0.219913
vn 0.567931 -0.814998 0.115034
vn 0.540826 -0.769229 0.340285
vn 0.531160 -0.821398 0.207784
vn 0.510674 -0.856834 0.071050
vn 0.113915 -0.975403 -0.188712
vn 0.915490 0.002484 0.402333
vn -0.090336 0.984784 0.148461
vn -0.094100 0.984429 0.148476
vn 0.106472 -0.975403 -0.193009
vn -0.086572 0.985124 0.148444
vn -0.806102 0.002470 -0.591771
vn -0.670965 -0.000514 0.741489
vn -0.307101 -0.000336 0.951677
vn 0.465719 0.007852 -0.884898
vn 0.499985 0.007858 -0.865999
vn 0.533484 0.007852 -0.845774
vn -0.433637 -0.739219 -0.515280
vn -0.495518 -0.710090 -0.500235
vn -0.401537 -0.802449 -0.441411
vn -0.524938 -0.744908 -0.411768
vn 0.000733 -0.981372 -0.192117
vn 0.769478 0.203768 -0.605295
vn 0.774615 0.142632 -0.616139
vn -0.769478 -0.203768 0.605295
vn -0.774615 -0.142632 0.616139
vn -0.957271 -0.048064 -0.285169
vn -0.958334 -0.037843 -0.283131
vn -0.629736 0.084070 -0.772247
vn -0.626127 0.053750 -0.777866
vn 0.268878 0.215125 -0.938843
vn 0.275553 0.147658 -0.949878
vn -0.268878 -0.215125 0.938843
vn -0.275553 -0.147658 0.949878
vn 0.653425 0.216642 -0.725329
vn 0.659653 0.149882 -0.736473
vn 0.987845 0.090986 0.126028
vn 0.990960 0.060022 0.119983
vn 0.105758 0.200775 -0.973912
vn 0.112504 0.140961 -0.983602
vn 0.748371 -0.040683 0.662031
vn 0.747296 -0.031745 0.663732
vn -0.105758 -0.200775 0.973912
vn -0.112504 -0.140961 0.983602
vn -0.659653 -0.149882 0.736473
vn -0.653425 -0.216642 0.725329
vn -0.662835 -0.082430 0.744215
vn -0.993078 -0.028999 -0.113818
vn -0.118831 -0.080623 0.989636
vn 0.746159 -0.022805 0.665378
vn 0.118831 0.080623 -0.989636
vn -0.746159 0.022805 -0.665378
vn 0.993078 0.028999 0.113818
vn 0.662835 0.082430 -0.744215
vn 0.621915 -0.023378 0.782736
vn -0.280927 -0.079495 0.956431
vn 0.280927 0.079495 -0.956431
vn -0.621915 0.023378 -0.782736
vn -0.959292 -0.027617 -0.281063
vn -0.776745 -0.080944 0.624592
vn 0.959292 0.027617 0.281063
vn 0.776745 0.080944 -0.624592
vn 0.500053 -0.556921 -0.663164
vn 0.264877 -0.555037 -0.788527
vn -0.310312 -0.851396 0.422885
vn -0.178316 -0.850533 0.494769
vn -0.384895 -0.835679 0.391786
vn -0.122099 -0.835402 0.535906
vn 0.005768 -0.831683 0.555220
vn 0.609729 -0.718481 0.334687
vn 0.265412 -0.537598 -0.800340
vn -0.370004 -0.630268 -0.682539
vn -0.601606 -0.723701 -0.338123
vn -0.468816 -0.833799 0.291530
vn 0.623378 -0.529584 -0.575274
vn 0.161403 -0.531740 -0.831385
vn 0.779062 -0.625378 -0.044324
vn 0.542591 -0.536525 -0.646325
vn 0.174503 -0.930906 -0.320878
vn 0.029676 -0.999019 -0.032856
vn 0.476922 -0.424194 -0.769808
vn -0.222191 -0.559818 0.798270
vn 0.425091 -0.431293 -0.795792
vn -0.584219 -0.546768 0.599777
vn 0.835530 -0.489097 0.250348
vn -0.639010 -0.486844 -0.595524
vn 0.595651 0.710839 0.374043
vn 0.313525 0.778979 -0.543041
vn 0.358131 0.777945 -0.516279
vn -0.289535 0.630428 0.720229
vn -0.386185 0.634910 0.669141
vn -0.623225 0.708943 -0.330136
vn 0.268071 0.777905 -0.568333
vn -0.478211 0.631792 0.610043
# 143 normals

vt 0.722218 0.000000 0.000000
vt 0.759343 0.000000 0.000000
vt 0.771660 0.000000 0.000000
vt 0.671389 0.000000 0.000000
vt 0.685093 0.000000 0.000000
vt 0.000000 1.000000 0.000000
vt 0.722266 0.000000 0.000000
vt 0.684090 0.000000 0.000000
vt 0.672128 0.000000 0.000000
vt -0.191021 -1635.312500 0.046883
vt 0.771372 0.000000 0.000000
vt 0.000000 1.000000 0.000000
vt 0.760442 0.000000 0.000000
vt 0.611115 0.000000 0.000000
vt 0.648240 0.000000 0.000000
vt 0.671600 0.000000 0.000000
vt 0.561688 0.000000 0.000000
vt 0.573990 0.000000 0.000000
vt 0.000000 1.204939 0.000000
vt 0.655001 0.000000 0.000000
vt 0.649243 0.000000 0.000000
vt 0.611068 0.000000 0.000000
vt 0.000000 1.000000 0.000000
vt 0.561990 0.000000 0.000000
vt -0.018989 0.754753 192.023438
vt 0.572892 0.000000 0.000000
vt 0.759892 0.000000 0.000000
vt 0.573441 0.000000 0.000000
vt 0.638567 0.000000 0.000000
vt 0.638567 0.000000 0.000000
vt 0.694766 0.000000 0.000000
vt 0.692172 0.000000 0.000000
vt 0.641162 0.000000 0.000000
vt 0.639152 0.000000 0.000000
vt 0.694181 0.000000 0.000000
vt 0.639304 0.000000 0.000000
vt 0.694023 0.000000 0.000000
vt 0.693598 0.000000 0.000000
vt 0.639743 0.000000 0.000000
vt 0.666667 0.000000 0.000000
vt 0.663459 0.000000 0.000000
vt 0.648742 0.000000 0.000000
vt 0.000000 1.000000 0.000000
vt 0.666519 0.000000 0.000000
vt 0.722257 0.000000 0.000000
vt 0.722242 0.000000 0.000000
vt 0.777778 0.419453 0.000000
vt 0.777778 0.407579 0.000000
vt 0.777778 0.093005 0.000000
vt 0.777778 0.080959 0.000000
vt 0.666667 0.500000 0.000000
vt 0.666667 0.500000 0.000000
vt 0.768377 0.500000 0.000000
vt 0.769011 0.500000 0.000000
vt 0.611091 0.000000 0.000000
vt 0.611076 0.000000 0.000000
vt 0.564323 0.500000 0.000000
vt 0.564956 0.500000 0.000000
vt 0.555556 0.080959 0.000000
vt 0.555556 0.093005 0.000000
vt 0.555556 0.407579 0.000000
vt 0.555556 0.419453 0.000000
vt 0.666667 0.417318 0.000000
vt 0.670534 0.000000 0.000000
vt 0.666600 0.000000 0.000000
vt 0.666667 0.413630 0.000000
vt 0.743314 0.000000 0.000000
vt 0.745933 0.000000 0.000000
vt 0.611106 0.000000 0.000000
vt 0.590409 0.000000 0.000000
vt 0.587401 0.000000 0.000000
vt 0.590020 0.000000 0.000000
vt 0.722227 0.000000 0.000000
vt 0.742925 0.000000 0.000000
vt 0.684592 0.000000 0.000000
vt 0.611110 0.000000 0.000000
vt 0.611110 0.000000 0.000000
vt 0.582996 0.000000 0.000000
vt 0.611072 0.000000 0.000000
vt 0.722261 0.000000 0.000000
vt 0.750338 0.000000 0.000000
vt 0.752312 0.000000 0.000000
vt 0.722223 0.000000 0.000000
vt 0.749683 0.000000 0.000000
vt 0.583651 0.000000 0.000000
vt 0.581021 0.000000 0.000000
vt 0.722261 0.000000 0.000000
# 87 texture coordinates

o Leg2
usemtl Mat_1
f 25/1/1 15/5/4 9/4/3 4/3/2 16/2/1
f 26/7/5 13/12/11 96/11/11 103/9/9 14/8/6
f 27/14/12 19/19/17 108/17/17 7/16/15 20/15/12
f 28/22/23 17/21/19 101/20/18 106/24/20 18/12/22
f 29/27/24 16/12/27 4/3/27 96/11/26 13/13/11
f 30/28/31 18/26/22 106/24/22 108/17/29 19/12/17
f 66/31/34 37/31/33 86/30/32 75/29/32
f 75/29/35 79/33/36 71/32/36 66/31/35
f 65/35/37 71/32/36 79/33/36 72/34/37
f 72/34/41 92/34/40 35/35/39 65/35/38
f 36/37/45 39/32/44 21/33/43 87/36/42
f 93/39/47 21/33/43 39/32/44 24/38/46
f 20/15/49 7/43/51 8/41/49 45/40/48 32/42/50
f 32/42/50 45/40/48 102/44/54 101/20/53 17/21/52
f 39/32/44 34/46/55 44/45/55 24/38/46
f 97/50/56 3/49/56 1/48/56 95/47/56
f 94/54/58 2/53/58 6/52/57 98/51/57
f 82/56/59 31/55/59 21/33/43 93/39/47
f 98/51/57 6/52/57 12/58/60 104/57/60
f 105/62/61 11/61/61 109/60/61 107/59/61
f 100/64/62 99/63/62 105/62/62 107/59/62
f 97/50/63 95/47/63 99/63/63 100/64/63
f 11/61/64 5/66/65 10/65/65 109/60/64
f 10/65/65 5/66/65 1/48/66 3/49/66
f 63/68/55 23/67/55 44/45/55 34/46/55
f 80/71/59 88/70/59 84/69/59 31/55/59
f 82/56/59 90/72/59 80/71/59 31/55/59
f 84/69/59 87/36/42 21/33/43 31/55/59
f 39/32/44 36/37/45 42/73/55 34/46/55
f 42/73/55 40/74/55 63/68/55 34/46/55
f 33/75/68 45/40/68 8/41/67 9/43/69 15/5/67
f 14/12/6 103/9/7 102/44/70 45/40/68 33/75/68
f 85/77/72 76/76/73 75/29/73 86/30/72
f 83/79/74 77/79/75 73/78/75 91/78/74
f 52/80/55 26/7/5 14/8/6 48/35/55
f 48/35/55 14/8/6 33/75/71 54/32/55
f 47/81/55 13/13/55 26/7/5 52/80/55
f 53/82/55 29/27/55 13/13/55 47/81/55
f 49/31/55 15/5/4 25/1/4 51/83/55
f 54/32/55 33/75/71 15/5/4 49/31/55
f 50/84/55 16/2/55 29/27/55 53/82/55
f 51/83/55 25/1/4 16/2/55 50/84/55
f 62/33/59 32/42/59 17/21/19 55/34/59
f 55/34/59 17/21/19 28/22/19 60/79/59
f 57/85/59 19/18/59 27/14/12 59/76/59
f 61/86/59 30/28/59 19/18/59 57/85/59
f 56/78/59 18/26/59 30/28/59 61/86/59
f 60/79/59 28/22/19 18/26/59 56/78/59
f 58/29/59 20/15/12 32/42/59 62/33/59
f 59/76/59 27/14/12 20/15/12 58/29/59
f 91/78/76 73/78/77 78/86/77 81/86/76
f 81/86/78 78/86/79 74/85/79 89/85/78
f 89/85/80 74/85/81 76/76/81 85/77/80
f 92/34/40 72/34/41 77/79/83 83/79/82
f 41/83/84 68/83/85 67/84/85 38/84/84
f 38/84/86 67/84/87 70/82/87 46/82/86
f 37/31/33 66/31/34 68/83/89 41/83/88
f 46/82/90 70/82/91 64/81/91 22/81/90
f 22/81/92 64/81/93 69/80/93 43/87/92
f 43/87/95 69/80/94 65/35/38 35/35/39
f 69/80/94 52/80/96 48/35/96 65/35/38
f 65/35/97 48/35/97 54/32/97 71/32/97
f 64/81/93 47/81/98 52/80/98 69/80/93
f 70/82/91 53/82/99 47/81/99 64/81/91
f 66/31/34 49/31/100 51/83/100 68/83/89
f 71/32/101 54/32/101 49/31/101 66/31/101
f 67/84/87 50/84/102 53/82/102 70/82/87
f 68/83/85 51/83/103 50/84/103 67/84/85
f 79/33/104 62/33/104 55/34/104 72/34/104
f 72/34/41 55/34/105 60/79/105 77/79/83
f 74/85/81 57/85/106 59/76/106 76/76/81
f 78/86/79 61/86/107 57/85/107 74/85/79
f 73/78/77 56/78/108 61/86/108 78/86/77
f 77/79/75 60/79/109 56/78/109 73/78/75
f 75/29/110 58/29/110 62/33/110 79/33/110
f 76/76/73 59/76/111 58/29/111 75/29/73
f 86/30/112 37/31/113 36/37/113 87/36/112
f 35/35/114 92/34/115 93/39/115 24/38/114
f 24/38/114 44/45/116 43/87/116 35/35/114
f 82/56/117 93/39/115 92/34/115 83/79/117
f 44/45/118 23/67/118 22/81/118 43/87/118
f 23/67/119 63/68/119 46/82/119 22/81/119
f 84/69/120 88/70/120 89/85/120 85/77/120
f 88/70/121 80/71/121 81/86/121 89/85/121
f 80/71/122 90/72/122 91/78/122 81/86/122
f 90/72/123 82/56/123 83/79/123 91/78/123
f 87/36/112 84/69/124 85/77/124 86/30/112
f 42/73/125 36/37/113 37/31/113 41/83/125
f 63/68/126 40/74/126 38/84/126 46/82/126
f 40/74/127 42/73/127 41/83/127 38/84/127
f 100/64/128 101/20/128 102/44/128 103/9/128
f 10/65/129 9/4/129 8/41/129 7/16/129
f 4/3/2 9/4/2 10/65/130 3/49/130
f 103/9/9 96/11/9 97/50/131 100/64/131
f 7/16/15 108/17/15 109/60/132 10/65/132
f 106/24/20 101/20/20 100/64/133 107/59/133
f 96/11/26 4/3/26 3/49/134 97/50/134
f 108/17/29 106/24/29 107/59/135 109/60/135
f 95/47/136 1/48/136 2/53/136 94/54/136
f 6/52/137 2/53/138 1/48/138 5/66/137
f 94/54/139 98/51/140 99/63/140 95/47/139
f 104/57/141 12/58/141 11/61/141 105/62/141
f 12/58/142 6/52/137 5/66/137 11/61/142
f 98/51/140 104/57/143 105/62/143 99/63/140

