# WaveFront *.obj file (generated by Cinema 4D)

mtllib ./Leg2_klein.mtl

v 33.077948 70.196679 1.056576
v 39.673802 71.757251 -2.917694
v 31.997291 68.614882 8.676654
v 44.108340 70.154229 8.348192
v 45.188998 71.736026 0.728114
v 37.512487 68.593657 12.322462
v 41.349138 4.987070 -11.140642
v 47.804940 6.556332 -15.250329
v 40.088975 3.397812 -3.596390
v 51.740417 4.947079 -4.271511
v 53.000580 6.536337 -11.815763
v 45.284614 3.377817 -0.161824
v 46.360124 -7.246001 12.068615
v 47.471656 -9.567340 7.522775
v 66.686822 1.074705 -18.632157
v 63.723178 -2.914802 -17.022986
v 63.319964 -3.111804 1.211034
v 63.341887 -6.036885 0.432776
v 28.358213 -7.176721 0.168493
v 32.092645 -9.508155 -2.643485
v 48.684911 1.143985 -30.532279
v 48.344166 -2.855616 -27.189247
v 31.725070 -2.990212 -19.674698
v 32.416842 -5.917872 -20.010155
v -3.263340 753.843384 63.507872
v -5.513317 751.112115 61.277939
v 0.731961 754.788668 61.100540
v 1.082537 752.672687 57.303668
v -3.917926 752.885243 68.123577
v -6.593975 749.530318 68.898017
v 2.598561 753.820825 67.382869
v 5.517075 751.069665 68.569554
v 3.253147 754.778966 62.767164
v 6.597733 752.651463 60.949476
v -1.396741 752.875541 69.790200
v -1.078778 749.509093 72.543825
v 33.982380 5.717390 -15.820169
v 31.018538 2.803799 -18.572160
v 47.695951 9.037367 -24.479185
v 47.978378 6.937996 -29.429741
v 31.370795 2.354687 0.177790
v 27.651681 -1.382710 1.271031
v 58.935896 5.621357 0.675296
v 62.613432 2.682207 2.313573
v 61.547480 8.984060 -15.322663
v 65.980289 6.868716 -17.529618
v 45.222325 2.301380 9.334312
v 45.653592 -1.451990 13.171154
# 48 vertices

vn -0.118942 0.975399 0.185608
vn 0.987911 0.042813 0.148990
vn 0.985234 0.063258 0.159099
vn -0.523449 0.045583 -0.850837
vn -0.531835 0.067571 -0.844148
vn 0.548714 0.104457 -0.829459
vn 0.544513 0.162993 -0.822763
vn -0.548714 -0.104457 0.829459
vn -0.544561 -0.162452 0.822838
vn -0.987911 -0.042813 -0.148990
vn -0.984872 -0.066975 -0.159819
vn 0.523449 -0.045583 0.850837
vn 0.532340 -0.071297 0.843523
vn 0.118942 -0.975399 -0.185608
vn 0.127490 -0.971770 -0.198518
vn 0.110364 -0.978781 -0.172651
vn -0.981132 -0.091090 -0.170535
vn -0.538543 -0.219891 0.813400
vn 0.540809 -0.096955 0.835539
vn 0.982037 0.083669 0.169123
vn 0.538412 0.220960 -0.813197
vn -0.539903 0.089518 -0.836954
vn -0.049784 0.971806 0.230466
vn -0.050361 0.986371 0.156643
vn -0.119152 0.986638 0.111126
vn -0.187290 0.972351 0.139486
vn -0.186849 0.958903 0.213522
vn -0.118057 0.958625 0.259037
vn -0.979301 -0.084410 -0.183970
vn -0.538478 -0.220425 0.813299
vn 0.552487 -0.090305 0.828615
vn 0.979301 0.084410 0.183970
vn 0.538478 0.220425 -0.813299
vn -0.552487 0.090305 -0.828615
vn 0.611214 0.753226 0.243037
vn -0.459037 0.757345 -0.464449
vn 0.296656 0.845575 -0.443844
vn -0.464866 0.533847 0.706334
vn -0.779423 0.626195 0.019452
vn 0.290828 0.622077 0.726939
vn -0.851692 -0.495299 -0.171172
vn -0.259890 -0.884258 0.388000
vn 0.506932 -0.522552 0.685535
vn 0.950077 -0.311517 0.017644
vn 0.440581 -0.597522 -0.669967
vn -0.401609 -0.341166 -0.849892
vn -0.708355 0.705194 0.030575
vn -0.430825 0.620415 0.655343
vn 0.253955 0.700380 0.667064
vn 0.523335 0.812084 0.258147
vn 0.245744 0.897368 -0.366525
vn -0.438733 0.814914 -0.378720
# 52 normals

vt 0.676136 0.000000 0.000000
vt 0.680221 0.000000 0.000000
vt 0.653112 0.000000 0.000000
vt 0.657198 0.000000 0.000000
vt 0.675997 0.000000 0.000000
vt 0.657337 0.000000 0.000000
vt 0.694766 0.000000 0.000000
vt 0.692172 0.000000 0.000000
vt 0.641162 0.000000 0.000000
vt 0.638567 0.000000 0.000000
vt 0.694181 0.000000 0.000000
vt 0.694181 0.000000 0.000000
vt 0.639152 0.000000 0.000000
vt 0.639152 0.000000 0.000000
vt 0.671145 0.000000 0.000000
vt 0.662188 0.000000 0.000000
vt 0.665171 0.000000 0.000000
vt 0.668162 0.000000 0.000000
vt 0.668170 0.000000 0.000000
vt 0.665163 0.000000 0.000000
vt 0.653538 0.000000 0.000000
vt 0.655316 0.000000 0.000000
vt 0.678017 0.000000 0.000000
vt 0.679795 0.000000 0.000000
vt 0.678246 0.000000 0.000000
vt 0.655087 0.000000 0.000000
vt 0.661007 0.000000 0.000000
vt 0.665071 0.000000 0.000000
vt 0.668262 0.000000 0.000000
vt 0.672326 0.000000 0.000000
vt 0.668276 0.000000 0.000000
vt 0.665058 0.000000 0.000000
# 32 texture coordinates

o Leg2_klein
usemtl Mat_1
f 27/4/1 25/3/1 31/2/1 33/1/1
f 31/2/1 25/3/1 29/6/1 35/5/1
f 32/8/2 4/8/3 5/7/3 34/7/2
f 28/10/4 2/10/5 1/9/5 26/9/4
f 34/7/6 5/7/7 2/10/7 28/10/6
f 30/14/8 3/13/9 6/12/9 36/11/8
f 26/9/10 1/9/11 3/13/11 30/14/10
f 36/11/12 6/12/13 4/8/13 32/8/12
f 14/18/15 20/17/15 24/16/14 18/15/14
f 22/20/16 16/19/16 18/15/14 24/16/14
f 9/13/17 3/13/11 1/9/11 7/9/17
f 12/12/18 6/12/9 3/13/9 9/13/18
f 10/8/19 4/8/13 6/12/13 12/12/19
f 11/7/20 5/7/3 4/8/3 10/8/20
f 8/10/21 2/10/7 5/7/7 11/7/21
f 7/9/22 1/9/5 2/10/5 8/10/22
f 41/22/24 9/13/24 7/9/23 37/21/23
f 47/23/25 12/12/25 9/13/24 41/22/24
f 43/24/26 10/8/26 12/12/25 47/23/25
f 45/25/27 11/7/27 10/8/26 43/24/26
f 39/26/28 8/10/28 11/7/27 45/25/27
f 37/21/23 7/9/23 8/10/28 39/26/28
f 19/28/29 42/28/29 38/27/29 23/27/29
f 13/29/30 48/29/30 42/28/30 19/28/30
f 17/30/31 44/30/31 48/29/31 13/29/31
f 15/31/32 46/31/32 44/30/32 17/30/32
f 21/32/33 40/32/33 46/31/33 15/31/33
f 23/27/34 38/27/34 40/32/34 21/32/34
f 33/1/35 31/2/35 32/8/35 34/7/35
f 25/3/36 27/4/36 28/10/36 26/9/36
f 27/4/37 33/1/37 34/7/37 28/10/37
f 35/5/38 29/6/38 30/14/38 36/11/38
f 29/6/39 25/3/39 26/9/39 30/14/39
f 31/2/40 35/5/40 36/11/40 32/8/40
f 24/16/41 20/17/41 19/28/41 23/27/41
f 20/17/42 14/18/42 13/29/42 19/28/42
f 14/18/43 18/15/43 17/30/43 13/29/43
f 18/15/44 16/19/44 15/31/44 17/30/44
f 16/19/45 22/20/45 21/32/45 15/31/45
f 22/20/46 24/16/46 23/27/46 21/32/46
f 41/22/47 37/21/47 38/27/47 42/28/47
f 47/23/48 41/22/48 42/28/48 48/29/48
f 43/24/49 47/23/49 48/29/49 44/30/49
f 45/25/50 43/24/50 44/30/50 46/31/50
f 39/26/51 45/25/51 46/31/51 40/32/51
f 37/21/52 39/26/52 40/32/52 38/27/52

