# WaveFront *.obj file (generated by Cinema 4D)

mtllib ./Leg3.mtl

v 215.300780 1119.185052 27.402140
v 211.593796 1124.863740 21.973466
v 214.515437 1098.224233 27.402141
v 211.493600 1090.940294 22.175001
v 215.300777 1119.185047 -99.919341
v 211.594315 1124.863643 -94.491395
v 214.515436 1098.224232 -99.919341
v 211.606027 1090.907549 -94.574786
v 223.070110 1120.758224 -36.258600
v 228.220114 1114.725928 -36.258600
v 223.121814 1088.587821 -40.455095
v 223.070216 1090.939511 -36.258600
v 175.053776 1094.053792 -25.051140
v 172.182212 1094.858385 10.306392
v 209.545074 1086.273773 -22.072885
v 206.673509 1087.078366 13.284646
v 174.732803 1094.127561 -47.749144
v 172.458649 1094.797376 -83.152927
v 209.268636 1086.334782 -50.114979
v 206.994482 1087.004596 -85.518762
v 166.474612 1096.067383 -7.989191
v 215.252673 1085.064775 -3.777303
v 215.284164 1085.055751 -68.306851
v 166.443121 1096.076406 -64.961055
v 188.833140 1091.135012 19.118304
v 102.230745 57.849780 -11.526288
v 192.894146 1089.997146 -30.884797
v 192.471712 1090.092449 -41.599698
v 102.230745 57.849780 -58.818853
v 189.255573 1091.039709 -91.668209
v 193.521491 1097.623098 -36.258600
v 179.946763 1092.974382 -19.118879
v 177.963918 1093.529962 5.295869
v 203.763368 1087.602197 -17.062363
v 201.780522 1088.157777 7.352386
v 175.199026 1094.099464 -7.235855
v 206.528259 1087.032695 -4.530638
v 189.559489 1090.931494 10.174780
v 192.167797 1090.200664 -21.941274
v 179.725128 1093.025320 -53.593793
v 178.154800 1093.487834 -78.040479
v 203.572484 1087.644324 -55.227427
v 202.002157 1088.106837 -79.674113
v 206.548485 1087.026899 -67.708424
v 175.178800 1094.105259 -65.559482
v 191.896475 1090.261875 -50.554921
v 189.830809 1090.870283 -82.712986
v 94.168014 72.890128 -24.817574
v 92.185169 73.445708 -0.402826
v 117.984619 67.517943 -22.761058
v 116.001774 68.073523 1.653691
v 89.420277 74.015210 -12.934550
v 120.749511 66.948441 -10.229334
v 103.780740 70.847241 4.476085
v 106.389048 70.116410 -27.639969
v 93.946379 72.941066 -45.723039
v 92.376052 73.403580 -70.169725
v 117.793736 67.560070 -47.356673
v 116.223408 68.022584 -71.803359
v 120.769736 66.942645 -59.837670
v 89.400051 74.021005 -57.688728
v 106.117727 70.177621 -42.684167
v 104.052061 70.786029 -74.842232
v 101.916511 61.334401 -74.883873
v 101.417039 58.089443 -71.486536
v 87.264502 64.569377 -57.730370
v 89.873619 60.638082 -57.972343
v 118.634187 57.491017 -59.879312
v 114.587870 55.061477 -59.665363
v 114.087859 58.570955 -71.845001
v 103.534899 57.484365 -27.584315
v 111.006097 55.912294 -69.092395
v 115.658190 58.108457 -47.398315
v 111.544286 55.689190 -46.053595
v 90.240502 63.951952 -70.211367
v 92.218228 60.151651 -67.805355
v 91.810833 63.489453 -45.764680
v 103.263578 57.545576 -42.739820
v 94.572454 59.518853 -44.909770
v 94.793752 59.468278 -25.565585
v 92.032468 63.438515 -24.775933
v 92.067843 60.184841 -2.718948
v 90.049619 63.994080 -0.361184
v 111.737519 55.646229 -24.133010
v 115.849073 58.066329 -22.719416
v 110.831485 55.952426 -1.098745
v 113.866224 58.621895 1.695332
v 89.889555 60.633517 -12.591925
v 87.284728 64.563582 -12.892909
v 114.571935 55.066043 -10.460651
v 118.613961 57.496813 -10.187692
v 101.203282 58.137668 1.124846
v 101.645191 61.395612 4.517726
v 159.045723 1110.400032 -36.258600
v 163.162101 1102.443526 -39.294708
v 164.317792 1104.228644 -36.258600
v 163.181605 1102.470332 -33.342901
v 164.101575 1133.192551 -36.258600
v 159.192946 1129.246306 -36.258600
v 164.988074 1101.711151 -90.394361
v 161.304255 1110.184287 -94.003647
v 166.171288 1131.302208 -89.522661
v 161.438454 1127.187887 -94.003647
v 164.891599 1101.735712 17.772246
v 161.304257 1110.184287 21.486447
v 166.171099 1131.302248 17.005643
v 161.438457 1127.187891 21.486447
v 228.957895 1094.546844 -36.258600
v 223.101578 1088.551875 -31.887103
# 109 vertices

vn -0.317618 -0.947006 -0.047944
vn -0.499619 -0.853063 -0.150545
vn -0.926608 -0.375155 0.025607
vn -0.914981 -0.402581 0.027192
vn -0.602550 -0.786407 0.136008
vn -0.503962 -0.822036 0.265103
vn 0.097142 -0.990652 -0.095769
vn -0.115985 -0.992815 -0.029423
vn 0.866531 -0.452575 0.210473
vn 0.912607 -0.349933 0.211411
vn 0.109679 -0.932024 0.345402
vn 0.280535 -0.926603 0.250414
vn -0.504438 -0.850911 0.146604
vn -0.319320 -0.946499 0.046623
vn -0.916992 -0.397850 -0.029011
vn -0.930016 -0.366451 -0.027981
vn -0.497999 -0.823315 -0.272305
vn -0.595223 -0.791057 -0.141206
vn -0.117862 -0.992552 0.030811
vn 0.091472 -0.990783 0.099907
vn 0.906654 -0.366671 -0.208638
vn 0.860867 -0.464407 -0.207929
vn 0.295908 -0.922731 -0.246994
vn 0.120310 -0.932475 -0.340612
vn -0.065372 -0.901800 0.427180
vn -0.168165 -0.336702 0.926473
vn -0.133068 -0.176700 0.975228
vn -0.391437 -0.834932 0.386866
vn -0.060064 -0.905205 -0.420710
vn -0.127995 -0.174528 -0.976298
vn -0.165392 -0.338240 -0.926412
vn -0.386990 -0.832784 -0.395867
vn 0.034785 -0.755100 0.654686
vn -0.129825 -0.724383 0.677064
vn -0.152405 -0.774279 0.614219
vn -0.080460 -0.815597 0.572999
vn -0.193806 -0.856834 0.477781
vn -0.238993 -0.748554 0.618505
vn -0.184343 -0.814999 0.549359
vn 0.977727 -0.000336 -0.209881
vn -0.219553 -0.975598 0.002146
vn -0.220216 -0.975449 0.002148
vn -0.220388 -0.975403 0.004297
vn 0.171843 0.985124 0.000751
vn 0.173740 0.984784 0.004003
vn -0.109438 0.002469 0.993991
vn -0.219553 -0.975598 -0.002151
vn -0.220388 -0.975403 -0.004297
vn -0.220216 -0.975449 -0.002149
vn -0.109314 0.002483 -0.994004
vn 0.175634 0.984429 0.007255
vn 0.977631 -0.000513 0.210328
vn -0.999204 0.007846 -0.039123
vn -0.999969 0.007852 0.000000
vn -0.999204 0.007846 0.039123
vn -0.220878 -0.975299 0.002150
vn -0.220878 -0.975299 -0.002147
vn -0.146238 -0.777104 -0.612147
vn -0.119912 -0.725464 -0.677734
vn 0.046051 -0.754000 -0.655258
vn -0.075382 -0.818430 -0.569640
vn -0.194838 -0.861395 -0.469081
vn -0.233911 -0.746324 -0.623126
vn -0.182928 -0.808741 -0.558995
vn 0.382536 -0.027008 -0.923546
vn 0.964232 -0.148593 -0.219493
vn 0.972564 -0.080564 -0.218239
vn 0.973385 -0.173529 -0.149698
vn -0.964232 0.148593 0.219493
vn -0.972564 0.080564 0.218239
vn -0.376246 0.057324 0.924745
vn -0.382536 0.027008 0.923546
vn -0.219799 0.023931 -0.975252
vn -0.952181 0.170776 -0.253350
vn -0.923045 0.079721 -0.376341
vn -0.914630 0.141275 -0.378806
vn 0.972461 -0.173249 0.155897
vn 0.968744 -0.079649 0.234930
vn 0.960383 -0.147735 0.236304
vn 0.366852 -0.023673 0.929978
vn 0.920901 -0.142623 -0.362766
vn 0.929287 -0.080924 -0.360384
vn 0.233997 -0.037717 -0.971506
vn 0.236295 -0.027364 -0.971296
vn -0.920901 0.142623 0.362766
vn -0.929287 0.080924 0.360384
vn -0.953262 0.171121 0.249016
vn -0.236295 0.027364 0.971296
vn -0.360556 0.053897 -0.931179
vn -0.366852 0.023673 -0.929978
vn -0.960383 0.147735 -0.236304
vn -0.968744 0.079649 -0.234930
vn -0.947501 0.215125 -0.236567
vn -0.353917 0.084070 -0.931491
vn -0.958158 0.215637 -0.188236
vn -0.902678 0.202282 -0.379808
vn -0.908940 0.203768 0.363740
vn -0.957743 0.215583 0.190398
vn 0.231672 -0.048065 -0.971606
vn 0.908940 -0.203768 -0.363740
vn 0.902678 -0.202282 0.379808
vn 0.914630 -0.141275 0.378806
vn 0.968806 -0.219422 0.115192
vn 0.947501 -0.215125 0.236567
vn 0.215238 -0.044334 0.975555
vn 0.951368 -0.215925 -0.219714
vn 0.968895 -0.219404 -0.114476
vn -0.951368 0.215925 0.219714
vn -0.369596 0.087584 0.925056
vn 0.923045 -0.079721 0.376341
vn 0.221378 0.975188 0.000002
vn 0.220039 0.975491 0.000001
vn 0.218700 0.975792 0.000000
vn 0.528873 -0.835352 -0.149934
vn 0.519470 -0.850915 -0.078070
vn 0.518683 -0.851391 0.078107
vn 0.526379 -0.834786 0.161423
vn -0.828557 -0.537032 0.158400
vn -0.417181 -0.627783 0.657152
vn 0.486880 -0.833800 -0.260242
vn 0.007979 -0.723701 -0.690068
vn -0.003641 -0.721063 0.692860
vn 0.482452 -0.832749 0.271603
vn -0.820871 -0.556268 -0.129372
vn -0.805169 -0.531101 -0.263882
vn -0.809762 -0.529399 0.253027
vn -0.821782 -0.554460 0.131333
vn -0.406095 -0.630268 -0.661702
vn -0.825822 -0.537597 -0.170317
vn -0.047462 -0.998862 0.004654
vn -0.369407 -0.929255 -0.004771
vn -0.902538 -0.429648 0.028752
vn 0.809486 -0.549488 0.206871
vn -0.902906 -0.428789 -0.030008
vn 0.805051 -0.556733 -0.204798
vn -0.198349 -0.486868 0.850657
vn -0.197712 -0.491571 -0.848097
vn 0.772586 0.634911 -0.000125
vn 0.768504 0.630428 -0.109369
vn 0.025707 0.708943 0.704797
vn -0.626228 0.777903 0.052010
vn -0.627052 0.778977 -0.000000
vn 0.767418 0.631793 0.109121
vn 0.026105 0.710839 -0.702870
vn -0.626179 0.777943 -0.052011
# 145 normals

vt 0.944449 0.000000 0.000000
vt 0.981573 0.000000 0.000000
vt 0.995206 0.000000 0.000000
vt 0.000032 0.990189 0.250000
vt 0.895013 0.000000 0.000000
vt -0.000043 0.989441 0.250000
vt 0.907324 0.000000 0.000000
vt -0.000000 -1.101666 0.000000
vt 0.994631 0.000000 0.000000
vt 0.982577 0.000000 0.000000
vt 0.944401 0.000000 0.000000
vt 0.000000 1.000000 0.000000
vt 0.895308 0.000000 0.000000
vt 0.906225 0.000000 0.000000
vt 0.004869 0.000000 0.000000
vt 0.018427 0.000000 0.000000
vt 0.055551 0.000000 0.000000
vt 0.104979 0.000000 0.000000
vt 0.000000 1.204939 0.000000
vt 0.092676 0.000000 0.000000
vt -0.000043 0.989359 0.250000
vt 0.055599 0.000000 0.000000
vt 0.017423 0.000000 0.000000
vt 0.005277 0.000000 0.000000
vt 11.864746 0.999938 3.000244
vt 0.104677 0.000000 0.000000
vt 0.093775 0.000000 0.000000
vt 0.906774 0.000000 0.000000
vt 0.093226 0.000000 0.000000
vt 0.305819 0.000000 0.000000
vt 0.017925 0.000000 0.000000
vt 0.000000 0.000000 0.000000
vt 0.358838 0.000000 0.000000
vt 0.388890 0.000000 0.000000
vt 0.000000 0.082607 0.000000
vt 0.000000 0.417318 0.000000
vt 0.111111 0.419453 0.000000
vt 0.111111 0.080959 0.000000
vt 0.973073 0.000000 0.000000
vt 0.974495 0.000000 0.000000
vt 0.944425 0.000000 0.000000
vt 0.944410 0.000000 0.000000
vt 0.897657 0.500000 0.000000
vt 0.898290 0.500000 0.000000
vt 1.000000 0.500000 0.000000
vt 0.888889 0.080959 0.000000
vt 0.888889 0.093005 0.000000
vt 0.888889 0.407579 0.000000
vt 0.888889 0.419453 0.000000
vt 0.026930 0.000000 0.000000
vt 0.055590 0.000000 0.000000
vt 0.055575 0.000000 0.000000
vt 0.025505 0.000000 0.000000
vt 0.111111 0.407579 0.000000
vt 0.111111 0.093005 0.000000
vt 0.000000 0.500000 0.000000
vt 0.101710 0.500000 0.000000
vt 0.102344 0.500000 0.000000
vt 1.000000 0.417318 0.000000
vt 1.000000 0.082607 0.000000
vt 0.000000 0.413630 0.000000
vt 0.000000 0.086318 0.000000
vt 1.000000 0.413630 0.000000
vt 1.000000 0.086318 0.000000
vt 0.944440 0.000000 0.000000
vt 0.923742 0.000000 0.000000
vt 0.920734 0.000000 0.000000
vt 0.076647 0.000000 0.000000
vt 0.079266 0.000000 0.000000
vt 0.923353 0.000000 0.000000
vt 0.972639 0.000000 0.000000
vt 0.055560 0.000000 0.000000
vt 0.027358 0.000000 0.000000
vt 0.076258 0.000000 0.000000
vt 1.000000 0.000000 0.000000
vt 0.982075 0.000000 0.000000
vt 0.054688 -63.000000 0.046849
vt 0.249662 0.000000 0.000000
vt 0.972485 0.000000 0.000000
vt 0.944406 0.000000 0.000000
vt 0.944444 0.000000 0.000000
vt 0.916984 0.000000 0.000000
vt 0.914354 0.000000 0.000000
vt 0.916329 0.000000 0.000000
vt 0.971901 0.000000 0.000000
vt 0.027515 0.000000 0.000000
vt 0.055594 0.000000 0.000000
vt 0.083671 0.000000 0.000000
vt 0.085646 0.000000 0.000000
vt 0.055556 0.000000 0.000000
vt 0.028100 0.000000 0.000000
vt 0.083016 0.000000 0.000000
vt 0.055556 0.000000 0.000000
vt 0.944444 0.000000 0.000000
vt 0.944406 0.000000 0.000000
vt 0.998663 0.000000 0.000000
vt 1.007249 0.000000 0.000000
vt 1.011416 0.000000 0.000000
vt 0.998973 0.000000 0.000000
# 99 texture coordinates

o Leg3
usemtl Mat_1
f 21/1/1 14/8/6 104/5/6 97/3/4 13/2/1
f 22/11/12 15/10/8 109/9/7 4/13/9 16/12/11
f 24/17/18 17/16/14 95/15/13 100/18/15 18/21/17
f 23/22/19 20/12/24 8/26/24 11/24/22 19/23/19
f 25/28/28 16/14/11 4/13/11 104/5/26 14/12/6
f 30/29/29 18/30/17 100/18/17 8/26/31 20/27/24
f 19/23/33 11/24/36 12/32/37 31/32/35 28/31/34
f 28/31/34 31/32/35 96/32/38 95/34/39 17/16/38
f 7/38/40 5/37/40 10/36/40 108/35/40
f 90/42/43 26/41/43 71/40/42 84/39/41
f 9/45/45 98/45/45 106/44/44 2/43/44
f 1/49/46 107/48/46 105/47/46 3/46/46
f 78/53/49 29/52/48 69/51/48 74/50/47
f 7/38/50 101/55/50 103/54/50 5/37/50
f 6/58/51 102/57/51 98/56/45 9/56/45
f 108/60/52 10/59/52 1/49/52 3/46/52
f 94/62/54 99/61/54 103/54/53 101/55/53
f 94/64/54 105/47/55 107/48/55 99/63/54
f 92/67/43 82/66/43 88/65/43 26/41/43
f 65/69/48 72/68/48 69/51/48 29/52/48
f 90/42/43 86/70/43 92/67/43 26/41/43
f 88/65/43 80/71/56 71/40/42 26/41/43
f 78/53/49 79/73/57 67/72/48 29/52/48
f 67/72/48 76/74/48 65/69/48 29/52/48
f 27/76/59 31/75/58 12/75/62 109/9/61 15/10/60
f 13/2/63 97/78/64 96/75/63 31/75/58 27/76/59
f 39/40/43 27/76/43 15/10/8 34/79/43
f 34/79/43 15/10/8 22/11/8 37/80/43
f 33/82/43 14/7/43 21/1/1 36/81/43
f 38/83/43 25/28/43 14/7/43 33/82/43
f 35/84/43 16/14/43 25/28/43 38/83/43
f 37/80/43 22/11/8 16/14/43 35/84/43
f 32/85/43 13/2/1 27/76/43 39/40/43
f 36/81/43 21/1/1 13/2/1 32/85/43
f 44/87/48 23/22/19 19/23/19 42/86/48
f 42/86/48 19/23/19 28/31/48 46/53/48
f 43/88/48 20/27/48 23/22/19 44/87/48
f 47/89/48 30/29/48 20/27/48 43/88/48
f 40/91/48 17/16/14 24/17/14 45/90/48
f 46/53/48 28/31/48 17/16/14 40/91/48
f 41/92/48 18/20/48 30/29/48 47/89/48
f 45/90/48 24/17/14 18/20/48 41/92/48
f 55/40/65 39/40/65 34/79/65 50/79/65
f 50/79/68 34/79/67 37/80/67 53/80/66
f 49/82/69 33/82/70 36/81/70 52/81/69
f 54/83/71 38/83/72 33/82/72 49/82/71
f 54/83/73 38/83/73 35/84/73 51/84/73
f 48/85/73 32/85/73 39/40/73 55/40/73
f 52/81/76 36/81/75 32/85/75 48/85/74
f 60/87/79 44/87/78 42/86/78 58/86/77
f 58/86/80 42/86/80 46/53/80 62/53/80
f 59/88/81 43/88/82 44/87/82 60/87/81
f 63/89/83 47/89/84 43/88/84 59/88/83
f 56/91/87 40/91/86 45/90/86 61/90/85
f 62/53/88 46/53/88 40/91/88 56/91/88
f 57/92/89 41/92/90 47/89/90 63/89/89
f 61/90/91 45/90/92 41/92/92 57/92/91
f 66/93/93 61/90/91 57/92/91 75/92/93
f 75/92/94 57/92/89 63/89/89 64/89/94
f 89/94/96 52/81/76 48/85/74 81/85/95
f 77/91/98 56/91/87 61/90/85 66/93/97
f 64/89/99 63/89/83 59/88/83 70/88/99
f 70/88/100 59/88/81 60/87/81 68/87/100
f 91/95/101 53/80/102 51/84/102 87/84/101
f 68/87/104 60/87/79 58/86/77 73/86/103
f 87/84/105 51/84/105 54/83/105 93/83/105
f 85/79/107 50/79/68 53/80/66 91/95/106
f 83/82/108 49/82/69 52/81/69 89/94/108
f 93/83/109 54/83/71 49/82/71 83/82/109
f 35/84/110 51/84/102 53/80/102 37/80/110
f 50/79/68 85/79/107 73/86/103 58/86/77
f 84/39/41 71/40/42 78/53/49 74/50/47
f 79/73/57 78/53/49 71/40/42 80/71/56
f 56/91/87 77/91/98 81/85/95 48/85/74
f 48/85/111 55/40/112 62/53/112 56/91/111
f 58/86/113 62/53/112 55/40/112 50/79/113
f 90/42/114 84/39/115 85/79/115 91/95/114
f 74/50/116 69/51/117 68/87/117 73/86/116
f 88/65/118 82/66/118 83/82/118 89/94/118
f 82/66/119 92/67/119 93/83/119 83/82/119
f 69/51/120 72/68/120 70/88/120 68/87/120
f 72/68/121 65/69/121 64/89/121 70/88/121
f 92/67/122 86/70/122 87/84/122 93/83/122
f 86/70/123 90/42/123 91/95/123 87/84/123
f 80/71/124 88/65/125 89/94/125 81/85/124
f 67/72/126 79/73/127 77/91/127 66/93/126
f 65/69/128 76/74/128 75/92/128 64/89/128
f 76/74/129 67/72/129 66/93/129 75/92/129
f 73/86/116 85/79/115 84/39/115 74/50/116
f 79/73/127 80/71/124 81/85/124 77/91/127
f 94/64/130 95/97/130 96/96/130 97/3/130
f 108/99/131 109/9/131 12/75/131 11/98/131
f 97/3/4 104/5/4 105/47/132 94/64/132
f 4/13/9 109/9/9 108/60/133 3/46/133
f 100/18/15 95/15/15 94/62/134 101/55/134
f 11/24/22 8/26/22 7/38/135 108/35/135
f 104/5/26 4/13/26 3/46/136 105/47/136
f 8/26/31 100/18/31 101/55/137 7/38/137
f 10/36/138 5/37/139 6/58/139 9/56/138
f 2/43/140 106/44/140 107/48/140 1/49/140
f 106/44/141 98/45/142 99/63/142 107/48/141
f 9/45/138 2/43/143 1/49/143 10/59/138
f 5/37/144 103/54/144 102/57/144 6/58/144
f 98/56/142 102/57/145 103/54/145 99/61/142

