# WaveFront *.obj file (generated by Cinema 4D)

mtllib ./Mitte_unten_Stativ.mtl

v 65.895908 576.723168 -28.636969
v 67.090000 576.608957 -46.449425
v 48.824870 576.369800 -38.624218
v 63.760279 576.518086 -48.440667
v 48.116052 576.587705 -36.013454
v 63.761747 576.769937 -27.929743
v 65.876743 580.036440 -28.669213
v 67.070835 579.922230 -46.481670
v 48.785186 579.682339 -38.692732
v 63.730853 579.831123 -48.491048
v 48.076369 579.900244 -36.081968
v 63.732321 580.082974 -27.980124
v 64.510088 581.465385 -29.737036
v 65.580407 581.368422 -45.703676
v 50.028022 581.163102 -37.791896
v 63.763281 581.304418 -46.796776
v 49.763534 581.352335 -36.824737
v 63.861495 581.507810 -29.529011
# 18 vertices

vn -0.024146 -0.998495 0.049238
vn -0.029978 -0.995334 0.091711
vn -0.018270 -0.999811 0.006674
vn 0.548498 0.020721 0.835895
vn 0.965283 0.016955 0.260657
vn 0.459386 -0.011147 -0.888167
vn -0.997743 -0.006422 -0.066844
vn -0.514506 0.006915 0.857459
vn -0.310498 -0.014131 -0.950469
vn 0.398383 -0.696411 0.596911
vn 0.681754 -0.676494 0.278510
vn 0.331349 -0.707002 -0.624785
vn -0.706545 -0.706363 -0.042954
vn -0.351009 -0.701755 0.619945
vn -0.241958 -0.714807 -0.656131
vn 0.004764 0.999019 -0.044032
vn 0.001206 0.999633 -0.027071
vn -0.002353 0.999946 -0.010101
# 18 normals

vt 0.679315 0.000000 0.000000
vt 0.334728 0.000000 0.000000
vt 0.465995 0.000000 0.000000
vt 0.542969 0.000000 0.000000
vt 0.748097 0.000000 0.000000
vt 0.199509 0.000000 0.000000
vt 0.305234 0.000000 0.000000
vt 0.361433 0.000000 0.000000
vt 0.638567 0.000000 0.000000
vt 0.694766 0.000000 0.000000
vt 0.971901 0.000000 0.000000
vt 0.028100 0.000000 0.000000
# 12 texture coordinates

o Mitte_unten_Stativ
usemtl Mat_1
f 17/4/2 15/3/2 16/2/1 18/1/1
f 16/2/1 14/6/3 13/5/3 18/1/1
f 9/8/4 3/8/4 4/7/4 10/7/4
f 11/9/5 5/9/5 3/8/5 9/8/5
f 12/10/6 6/10/6 5/9/6 11/9/6
f 8/12/7 2/12/7 1/11/7 7/11/7
f 10/7/8 4/7/8 2/12/8 8/12/8
f 7/11/9 1/11/9 6/10/9 12/10/9
f 15/3/10 9/8/10 10/7/10 16/2/10
f 17/4/11 11/9/11 9/8/11 15/3/11
f 18/1/12 12/10/12 11/9/12 17/4/12
f 14/6/13 8/12/13 7/11/13 13/5/13
f 16/2/14 10/7/14 8/12/14 14/6/14
f 13/5/15 7/11/15 12/10/15 18/1/15
f 5/9/16 6/10/17 4/7/17 3/8/16
f 2/12/18 4/7/17 6/10/17 1/11/18

