# WaveFront *.obj file (generated by Cinema 4D)

mtllib ./Stativ_ganz_Oben.mtl

v -12.775322 1372.558549 -36.258646
v 145.903522 1372.558549 -36.258646
v 145.903514 1505.131979 62.998291
v 40.117626 1272.384798 -36.258645
v 93.010574 1272.384798 -36.258645
v 139.722496 1501.642028 68.099783
v 139.722492 1511.313000 62.998293
v 40.117626 1272.384807 -85.639874
v 93.010574 1272.384807 -85.639874
v 93.010568 1511.312969 62.998291
v 93.010567 1501.641998 68.099783
v 40.117626 1312.196304 -123.708456
v 93.010574 1312.196304 -123.708456
v 40.117620 1511.312935 62.998287
v 40.117619 1501.641962 68.099778
v 40.117626 1359.750389 -141.743341
v 93.010574 1359.750389 -141.743341
v -6.594310 1501.641931 68.099778
v -12.775330 1505.131887 62.998285
v 40.117626 1410.238668 -135.612954
v 93.010574 1410.238668 -135.612954
v -6.594313 1511.312904 62.998285
v 139.722506 1511.313010 7.623431
v 40.117626 1452.094886 -106.721692
v 93.010574 1452.094886 -106.721692
v 145.903529 1505.131990 4.418069
v -12.775322 1475.730289 -61.688196
v 40.117635 1511.312959 -80.140731
v 93.010583 1511.312994 -80.140731
v 145.903522 1475.730289 -61.688196
v -12.775322 1475.730289 -10.829097
v 40.117635 1511.312944 7.623431
v 93.010583 1511.312979 7.623431
v 145.903522 1475.730289 -10.829097
v -6.594299 1511.312913 7.623431
v 40.117626 1452.094886 34.204400
v 93.010574 1452.094886 34.204400
v -12.775315 1505.131896 4.418065
v 145.903529 1505.132004 -76.935368
v 40.117626 1410.238668 63.095661
v 93.010574 1410.238668 63.095661
v 139.722506 1511.313025 -80.140731
v -12.775315 1505.131910 -76.935364
v 40.117626 1359.750389 69.226048
v 93.010574 1359.750389 69.226048
v -6.594299 1511.312929 -80.140731
v 145.903514 1505.132013 -135.515579
v 40.117626 1312.196304 51.191163
v 93.010574 1312.196304 51.191163
v 139.722492 1511.313034 -135.515579
v 139.722496 1501.642064 -140.617073
v 40.117626 1272.384789 13.122579
v 93.010574 1272.384789 13.122579
v 93.010567 1501.642034 -140.617073
v 93.010568 1511.313004 -135.515577
v 40.117619 1501.641998 -140.617068
v 40.117620 1511.312969 -135.515574
v -6.594310 1501.641968 -140.617068
v -6.594313 1511.312938 -135.515572
v -12.775330 1505.131921 -135.515574
v 145.903522 1278.425968 10.144546
v 139.722503 1272.384789 13.122579
v -6.594303 1272.384788 13.122579
v -12.775322 1278.425967 10.144546
v 145.903522 1315.782456 45.995725
v 139.722503 1312.196304 51.191163
v -12.775322 1278.565817 -36.258645
v -6.594303 1272.384797 -36.258645
v 139.722503 1272.384799 -36.258645
v 145.903522 1278.565818 -36.258645
v -12.775322 1278.425984 -82.661841
v -6.594303 1272.384806 -85.639874
v 139.722503 1272.384808 -85.639874
v 145.903522 1278.425985 -82.661841
v -12.775322 1315.782456 -118.513018
v -6.594303 1312.196304 -123.708456
v 139.722503 1312.196304 -123.708456
v 145.903522 1315.782456 -118.513018
v -12.775322 1360.517725 -135.423753
v -6.594303 1359.750389 -141.743341
v 139.722503 1359.750389 -141.743341
v 145.903522 1360.517725 -135.423753
v -12.775322 1407.981252 -129.660637
v -6.594303 1410.238668 -135.612954
v 139.722503 1410.238668 -135.612954
v 145.903522 1407.981252 -129.660637
v -6.594302 1452.094886 -106.721692
v -12.775322 1447.329864 -102.500251
v -12.775322 1454.987007 -101.211217
v 139.722503 1452.094886 -106.721692
v 145.903522 1454.987005 -101.211222
v 145.903522 1447.329864 -102.500251
v -6.594302 1452.094886 34.204400
v -12.775322 1454.987007 28.693924
v -12.775322 1447.329864 29.982958
v 139.722503 1452.094886 34.204400
v 145.903522 1447.329864 29.982958
v 145.903522 1454.987005 28.693929
v -12.775322 1407.981252 57.143344
v -6.594303 1410.238668 63.095661
v 139.722503 1410.238668 63.095661
v 145.903522 1407.981252 57.143344
v -12.775322 1360.517725 62.906460
v -6.594303 1359.750389 69.226048
v 139.722503 1359.750389 69.226048
v 145.903522 1360.517725 62.906460
v -12.775322 1315.782456 45.995725
v -6.594303 1312.196304 51.191163
# 108 vertices

vn 0.000000 -0.564624 0.825348
vn 0.000000 -0.564624 0.825348
vn 1.000000 -0.000000 0.000000
vn 1.000000 -0.000000 0.000000
vn 1.000000 -0.000000 0.000000
vn 1.000000 -0.000000 0.000000
vn 0.000000 -0.564624 0.825348
vn -1.000000 0.000000 -0.000000
vn -1.000000 0.000000 -0.000000
vn -1.000000 0.000000 -0.000000
vn -1.000000 0.000000 -0.000000
vn -1.000000 -0.000000 0.000000
vn -1.000000 0.000000 0.000000
vn -1.000000 -0.000000 -0.000000
vn 0.000000 -1.000000 -0.000000
vn 0.000000 -1.000000 -0.000000
vn 1.000000 -0.000000 -0.000000
vn 1.000000 0.000000 -0.000000
vn 1.000000 0.000000 0.000000
vn -1.000000 -0.000000 0.000000
vn 0.000000 -0.691109 -0.722750
vn 0.000000 -0.691109 -0.722750
vn 0.000000 -0.533520 -0.845787
vn 0.000000 -0.533520 -0.845787
vn 0.000000 -0.691109 -0.722750
vn 0.000000 -0.533520 -0.845787
vn 1.000000 0.000000 -0.000000
vn -1.000000 -0.000000 0.000000
vn 0.000000 -0.354605 -0.935016
vn 1.000000 0.000000 0.000000
vn -1.000000 -0.000000 0.000000
vn 0.000000 0.120537 -0.992709
vn -1.000000 -0.000000 0.000000
vn 0.000000 0.568065 -0.822984
vn -1.000000 0.000000 0.000000
vn -1.000000 0.000000 0.000000
vn -0.000001 1.000000 0.000000
vn -0.000001 1.000000 0.000000
vn 1.000000 -0.000000 -0.000000
vn 1.000000 -0.000000 -0.000000
vn -1.000000 -0.000000 -0.000000
vn -1.000000 -0.000000 -0.000000
vn 0.000000 0.568065 0.822984
vn -1.000000 -0.000000 -0.000000
vn 0.000000 0.120537 0.992709
vn -1.000000 -0.000000 -0.000000
vn 0.000000 -0.354605 0.935016
vn 0.000000 -0.533520 0.845788
vn 0.000000 -0.533520 0.845788
vn 0.000000 -0.533520 0.845788
vn 0.000000 -0.533520 0.845787
vn 1.000000 0.000000 0.000000
vn -1.000000 -0.000000 0.000000
vn 0.000000 -0.691109 0.722751
vn 0.000000 -0.691109 0.722751
vn 0.000000 -0.691109 0.722751
vn 0.000000 -0.691109 0.722751
vn 1.000000 0.000000 -0.000000
vn 0.000000 -0.564624 -0.825348
vn 0.000000 -0.564624 -0.825348
vn -1.000000 0.000000 0.000000
vn -1.000000 0.000000 0.000000
vn 0.000000 -0.564624 -0.825348
vn 0.000000 -0.564624 -0.825348
vn 1.000000 -0.000000 -0.000000
vn 1.000000 -0.000000 -0.000000
vn 0.000000 -0.564624 0.825348
vn -0.625394 0.129538 -0.769482
vn -0.676119 0.269544 -0.685718
vn 0.676119 0.269544 -0.685718
vn 0.625394 0.129537 -0.769482
vn -0.676119 0.269544 0.685718
vn -0.625394 0.129538 0.769482
vn 0.625394 0.129537 0.769482
vn 0.676119 0.269544 0.685718
vn -0.422814 0.422814 -0.801534
vn 0.422814 0.422814 -0.801534
vn -0.422814 0.422814 0.801534
vn 0.422814 0.422814 0.801534
vn 0.707107 -0.399249 0.583610
vn -0.000000 0.466570 0.884484
vn -0.000000 0.466570 0.884484
vn 0.707107 0.707107 0.000000
vn 0.707107 0.707107 0.000000
vn -0.000000 0.466570 0.884484
vn -0.707107 -0.399250 0.583609
vn -0.707107 0.707107 0.000000
vn -0.707107 0.707107 -0.000000
vn -0.702918 -0.711271 -0.000007
vn -0.703050 -0.711140 0.001065
vn 0.702918 -0.711271 0.000006
vn 0.702785 -0.711401 0.001078
vn -0.712833 -0.485157 -0.506451
vn -0.716345 -0.371747 -0.590470
vn 0.712665 -0.485278 -0.506570
vn 0.716308 -0.371792 -0.590485
vn -0.716678 -0.084059 -0.692319
vn 0.716725 -0.084043 -0.692273
vn -0.717454 0.247020 -0.651338
vn 0.717454 0.247020 -0.651338
vn -0.000000 0.466571 -0.884484
vn -0.000000 0.466571 -0.884484
vn -0.707107 0.707107 0.000000
vn -0.707107 0.707107 0.000000
vn -0.000000 0.466571 -0.884484
vn -0.000000 0.466571 -0.884484
vn 0.707107 0.707107 -0.000000
vn 0.707107 0.707107 0.000000
vn -0.000000 0.466570 0.884484
vn -0.717454 0.247020 0.651338
vn 0.717454 0.247020 0.651338
vn -0.716725 -0.084043 0.692273
vn 0.716678 -0.084059 0.692319
vn -0.716308 -0.371792 0.590486
vn 0.716345 -0.371747 0.590470
vn -0.712665 -0.485278 0.506570
vn 0.712833 -0.485157 0.506451
vn -0.702785 -0.711401 -0.001079
vn 0.703050 -0.711140 -0.001066
vn -0.707107 -0.399250 -0.583609
vn 0.707107 -0.399249 -0.583610
# 121 normals

vt 0.615385 0.961047 0.000000
vt 0.615385 0.666667 0.000000
vt 0.538462 1.000000 0.000000
vt 0.605972 1.000000 0.000000
vt 0.615385 1.038953 0.000000
vt 0.615385 0.333333 0.000000
vt 0.597310 0.000000 0.000000
vt 0.605972 0.000000 0.000000
vt 0.538462 0.000000 0.000000
vt 0.500000 0.500000 0.000000
vt 0.030851 0.500000 0.000000
vt 0.083972 0.718349 0.000000
vt 0.000000 1.000000 0.000000
vt 0.000000 0.038953 0.000000
vt 0.000000 0.333333 0.000000
vt 0.076923 0.333333 0.000000
vt 0.076923 0.038953 0.000000
vt 0.000000 0.666667 0.000000
vt 0.076923 0.666667 0.000000
vt 0.000000 0.961047 0.000000
vt 0.076923 0.961047 0.000000
vt 0.969149 0.500000 0.000000
vt 0.916028 0.718349 0.000000
vt 0.000000 1.000000 0.000000
vt 0.232842 0.887045 0.000000
vt -0.000043 0.991274 0.250000
vt 0.153846 0.333333 0.000000
vt 0.153846 0.038953 0.000000
vt 0.153846 0.666667 0.000000
vt 0.153846 0.961047 0.000000
vt 0.767158 0.887045 0.000000
vt 0.000000 1.000000 0.000000
vt 0.443342 0.966618 0.000000
vt 0.230769 0.333333 0.000000
vt 0.230769 0.038953 0.000000
vt 0.230769 0.666667 0.000000
vt 0.230769 0.961047 0.000000
vt 0.556658 0.966618 0.000000
vt -0.000043 0.991205 0.250000
vt 0.666680 0.939500 0.000000
vt 0.000000 1.000000 0.000000
vt 0.307692 0.333333 0.000000
vt 0.307692 0.038953 0.000000
vt 0.307692 0.666667 0.000000
vt 0.307692 0.961047 0.000000
vt 0.333320 0.939500 0.000000
vt 0.851834 0.811697 0.000000
vt -0.000043 0.991159 0.250000
vt 0.384615 0.333333 0.000000
vt 0.384615 0.038953 0.000000
vt 0.384615 0.666667 0.000000
vt 0.384615 0.961047 0.000000
vt 0.148166 0.811697 0.000000
vt 0.000000 1.000000 0.000000
vt 0.887864 0.805632 0.000000
vt 0.985471 0.619658 0.000000
vt 0.398050 0.038953 0.000000
vt 0.398050 0.333333 0.000000
vt 0.461538 0.333333 0.000000
vt 0.461538 0.038953 0.000000
vt 0.398050 0.666667 0.000000
vt 0.461538 0.666667 0.000000
vt 0.398050 0.961047 0.000000
vt 0.461538 0.961047 0.000000
vt 0.014529 0.619658 0.000000
vt 0.112136 0.805632 0.000000
vt 0.985471 0.380342 0.000000
vt 0.000000 1.000000 0.000000
vt 0.538462 0.333333 0.000000
vt 0.538462 0.038953 0.000000
vt 0.538462 0.666667 0.000000
vt 0.538462 0.961047 0.000000
vt 0.014529 0.380342 0.000000
vt 0.887864 0.194368 0.000000
vt 0.851834 0.188303 0.000000
vt 0.601950 0.333333 0.000000
vt 0.601950 0.666667 0.000000
vt 0.615385 0.961047 0.000000
vt 0.148166 0.188303 0.000000
vt 0.112136 0.194368 0.000000
vt 0.666680 0.060500 0.000000
vt 0.615385 0.038953 0.000000
vt 0.692308 0.333333 0.000000
vt 0.692308 0.038953 0.000000
vt 0.692308 0.666667 0.000000
vt 0.692308 0.961047 0.000000
vt 0.333320 0.060500 0.000000
vt -0.000043 0.990976 0.250000
vt 0.443342 0.033382 0.000000
vt 0.000000 1.000000 0.000000
vt 0.769231 0.333333 0.000000
vt 0.769231 0.038953 0.000000
vt 0.769231 0.666667 0.000000
vt 0.769231 0.961047 0.000000
vt 0.556658 0.033382 0.000000
vt 0.232842 0.112955 0.000000
vt -0.000043 0.990931 0.250000
vt 0.846154 0.333333 0.000000
vt 0.846154 0.038953 0.000000
vt 0.846154 0.666667 0.000000
vt 0.846154 0.961047 0.000000
vt 0.767158 0.112955 0.000000
vt 0.000000 1.000000 0.000000
vt 0.083972 0.281651 0.000000
vt 0.923077 0.333333 0.000000
vt 0.923077 0.038953 0.000000
vt 0.923077 0.666667 0.000000
vt 0.923077 0.961047 0.000000
vt 0.916028 0.281651 0.000000
vt -0.000043 0.990862 0.250000
vt 0.000000 1.000000 0.000000
vt 1.000000 0.333333 0.000000
vt 1.000000 0.038953 0.000000
vt 1.000000 0.666667 0.000000
vt 1.000000 0.961047 0.000000
vt 0.371181 0.038953 0.000000
vt 0.461538 0.000000 0.000000
vt 0.394028 0.000000 0.000000
vt 0.398050 -0.038953 0.000000
vt 0.384615 0.666667 0.000000
vt 0.371181 0.961047 0.000000
vt 0.398050 1.038953 0.000000
vt 0.394028 1.000000 0.000000
vt 0.461538 1.000000 0.000000
vt 0.624177 0.000000 0.000000
vt 0.845589 0.842758 0.000000
vt 0.382311 1.038953 0.000000
vt -0.000043 0.990747 0.250000
vt 0.616771 0.000000 0.000000
vt 0.000000 1.000000 0.000000
vt 0.615385 1.038953 0.000000
vt 0.615385 1.005002 0.000000
vt -0.000043 0.990725 0.250000
vt 0.000000 1.000000 0.000000
vt -0.000043 0.990702 0.250000
vt -0.030851 0.500000 0.000000
vt 0.041131 0.753383 0.000000
vt 0.000000 1.038953 0.000000
vt 0.072284 1.038072 0.000000
vt 0.037686 0.753383 0.000000
vt 0.204875 0.938686 0.000000
vt 0.080146 1.039876 0.000000
vt 0.152451 1.039283 0.000000
vt 0.205654 0.938686 0.000000
vt 0.443237 1.025227 0.000000
vt 0.156131 1.038628 0.000000
vt 0.228465 1.038953 0.000000
vt 0.478668 0.973891 0.000000
vt 0.627873 0.947486 0.000000
vt 0.233073 1.038953 0.000000
vt 0.305388 1.038953 0.000000
vt 0.701339 0.929523 0.000000
vt 0.309997 1.038953 0.000000
vt 0.830215 0.159433 0.000000
vt 0.701024 0.080256 0.000000
vt 0.617689 1.038953 0.000000
vt 0.690003 1.038953 0.000000
vt 0.680808 0.003619 0.000000
vt 0.429418 -0.023549 0.000000
vt 0.694612 1.038953 0.000000
vt 0.766927 1.038953 0.000000
vt 0.429418 -0.023549 0.000000
vt 0.195867 0.067487 0.000000
vt 0.771535 1.038953 0.000000
vt 0.843869 1.038628 0.000000
vt 0.196382 0.067487 0.000000
vt 0.030866 0.267638 0.000000
vt 0.847549 1.039283 0.000000
vt 0.919854 1.039876 0.000000
vt 0.026420 0.267638 0.000000
vt -0.030851 0.500000 0.000000
vt 0.927716 1.038072 0.000000
vt 1.000000 1.038953 0.000000
# 173 texture coordinates

o Stativ_ganz_Oben
usemtl Mat_1
f 11/2/2 37/2/2 96/1/1 6/1/1
f 3/5/6 98/4/5 34/3/4 26/3/3
f 15/6/7 36/6/7 37/2/2 11/2/2
f 38/9/11 31/9/10 94/8/9 19/7/8
f 71/12/14 67/11/13 1/10/12
f 72/17/15 8/16/16 4/15/16 68/14/15
f 8/16/16 9/19/16 5/18/16 4/15/16
f 9/19/16 73/21/15 69/20/15 5/18/16
f 74/23/19 2/10/18 70/22/17
f 75/25/20 71/12/14 1/10/12
f 76/28/24 12/27/23 8/16/22 72/17/21
f 12/27/23 13/29/23 9/19/22 8/16/22
f 13/29/23 77/30/26 73/21/25 9/19/22
f 78/31/27 2/10/18 74/23/19
f 79/33/28 75/25/20 1/10/12
f 80/35/29 16/34/29 12/27/23 76/28/24
f 16/34/29 17/36/29 13/29/23 12/27/23
f 17/36/29 81/37/29 77/30/26 13/29/23
f 82/38/30 2/10/18 78/31/27
f 83/40/31 79/33/28 1/10/12
f 84/43/32 20/42/32 16/34/32 80/35/32
f 20/42/32 21/44/32 17/36/32 16/34/32
f 21/44/32 85/45/32 81/37/32 17/36/32
f 86/46/30 2/10/18 82/38/30
f 88/47/33 83/40/31 1/10/12
f 87/50/34 24/49/34 20/42/34 84/43/34
f 24/49/34 25/51/34 21/44/34 20/42/34
f 25/51/34 90/52/34 85/45/34 21/44/34
f 92/53/30 2/10/18 86/46/30
f 27/56/36 89/55/35 88/47/33 1/10/12
f 46/60/37 28/59/37 57/58/37 59/57/37
f 28/59/37 29/62/37 55/61/37 57/58/37
f 29/62/37 42/64/37 50/63/38 55/61/37
f 91/66/40 30/65/39 2/10/18 92/53/30
f 31/67/10 27/56/36 1/10/12
f 35/70/37 32/69/37 28/59/37 46/60/37
f 32/69/37 33/71/37 29/62/37 28/59/37
f 33/71/37 23/72/37 42/64/37 29/62/37
f 34/73/4 2/10/18 30/65/39
f 95/75/41 94/74/9 31/67/10 1/10/12
f 22/7/37 14/76/37 32/69/37 35/70/37
f 14/76/37 10/77/37 33/71/37 32/69/37
f 10/77/37 7/78/37 23/72/37 33/71/37
f 98/80/5 97/79/30 2/10/18 34/73/4
f 99/81/42 95/75/41 1/10/12
f 100/84/43 40/83/43 36/6/43 93/82/43
f 40/83/43 41/85/43 37/2/43 36/6/43
f 41/85/43 101/86/43 96/1/43 37/2/43
f 102/87/30 2/10/18 97/79/30
f 103/89/44 99/81/42 1/10/12
f 104/92/45 44/91/45 40/83/45 100/84/45
f 44/91/45 45/93/45 41/85/45 40/83/45
f 45/93/45 105/94/45 101/86/45 41/85/45
f 106/95/30 2/10/18 102/87/30
f 107/96/46 103/89/44 1/10/12
f 108/99/49 48/98/48 44/91/47 104/92/47
f 48/98/48 49/100/50 45/93/47 44/91/47
f 49/100/50 66/101/51 105/94/47 45/93/47
f 65/102/52 2/10/18 106/95/30
f 64/104/53 107/96/46 1/10/12
f 63/106/55 52/105/54 48/98/48 108/99/49
f 52/105/54 53/107/56 49/100/50 48/98/48
f 53/107/56 62/108/57 66/101/51 49/100/50
f 61/109/58 2/10/18 65/102/52
f 67/11/13 64/104/53 1/10/12
f 68/113/15 4/112/16 52/105/16 63/106/15
f 4/112/16 5/114/16 53/107/16 52/105/16
f 5/114/16 69/115/15 62/108/15 53/107/16
f 70/22/17 2/10/18 61/109/58
f 56/49/60 24/49/60 87/50/59 58/116/59
f 60/119/62 89/118/35 27/117/36 43/117/61
f 54/120/63 25/51/63 24/49/60 56/49/60
f 51/121/64 90/52/64 25/51/63 54/120/63
f 39/124/66 30/124/39 91/123/40 47/122/65
f 43/117/61 27/117/36 31/9/10 38/9/11
f 18/125/67 93/82/67 36/6/7 15/6/7
f 30/124/39 39/124/66 26/3/3 34/3/4
f 87/126/69 88/47/69 89/55/68
f 90/52/70 91/123/71 92/127/70
f 93/82/72 94/8/73 95/129/72
f 96/1/75 97/132/75 98/131/74
f 60/119/76 59/57/76 58/116/76
f 51/121/77 50/63/77 47/122/77
f 22/7/78 19/7/78 18/125/78
f 7/78/79 6/1/79 3/5/79
f 6/1/80 96/1/80 98/4/80 3/5/80
f 11/2/81 6/1/82 7/78/82 10/77/81
f 3/5/83 26/3/84 23/72/84 7/78/83
f 15/6/85 11/2/81 10/77/81 14/76/85
f 19/7/86 94/8/86 93/82/86 18/125/86
f 38/9/87 19/7/88 22/7/88 35/70/87
f 67/11/89 71/12/90 72/137/90 68/136/89
f 69/20/91 73/21/92 74/139/92 70/138/91
f 71/12/93 75/25/94 76/141/94 72/140/93
f 73/21/95 77/30/96 78/143/96 74/142/95
f 75/25/94 79/33/97 80/145/97 76/144/94
f 77/30/96 81/37/98 82/147/98 78/146/96
f 79/33/97 83/40/99 84/149/99 80/148/97
f 81/37/98 85/45/100 86/151/100 82/150/98
f 83/40/99 88/47/69 87/126/69 84/152/99
f 85/45/100 90/52/70 92/127/70 86/153/100
f 59/57/101 57/58/102 56/49/102 58/116/101
f 46/60/103 59/57/104 60/119/104 43/117/103
f 57/58/102 55/61/105 54/120/105 56/49/102
f 55/61/105 50/63/106 51/121/106 54/120/105
f 50/63/107 42/64/108 39/124/108 47/122/107
f 35/70/87 46/60/103 43/117/103 38/9/87
f 42/64/108 23/72/84 26/3/84 39/124/108
f 14/76/85 22/7/109 18/125/109 15/6/85
f 95/75/72 99/81/110 100/155/110 93/154/72
f 96/1/75 101/86/111 102/157/111 97/156/75
f 99/81/110 103/89/112 104/159/112 100/158/110
f 101/86/111 105/94/113 106/161/113 102/160/111
f 103/89/112 107/96/114 108/163/114 104/162/112
f 105/94/113 66/101/115 65/165/115 106/164/113
f 107/96/114 64/104/116 63/167/116 108/166/114
f 66/101/115 62/108/117 61/169/117 65/168/115
f 64/104/118 67/11/89 68/171/89 63/170/118
f 62/108/119 69/115/91 70/173/91 61/172/119
f 58/116/120 87/50/120 89/118/120 60/119/120
f 90/52/121 51/121/121 47/122/121 91/123/121

