# WaveFront *.obj file (generated by Cinema 4D)

mtllib ./Unten_Stativ_2.mtl

v 34.745198 70.446302 -63.672481
v 35.114775 69.938474 -64.223729
v 35.364472 70.220465 -63.480297
v 34.232312 72.098479 -67.614735
v 34.273468 71.332387 -67.298461
v 33.892970 71.860834 -66.788035
v 49.339190 70.359213 -72.665321
v 48.827583 70.074056 -73.236921
v 48.559941 576.076374 -39.332022
v 49.181514 576.616594 -39.483459
v 49.179219 575.850553 -39.139832
v 48.047059 577.728567 -43.274271
v 48.340208 578.010507 -42.558193
v 47.707713 577.490906 -42.447576
v 63.153936 575.989301 -48.324857
v 62.894321 576.752176 -48.496653
v 63.263365 576.230086 -49.010936
v 60.988190 577.677930 -51.282719
v 60.634505 578.192255 -50.752850
v 60.139008 577.906931 -51.334272
v 46.324261 72.276844 -75.674736
v 46.567765 71.514135 -75.493117
v 47.173453 72.047883 -75.623168
v 49.448628 70.600039 -73.351385
# 24 vertices

vn -0.222782 -0.908524 -0.353487
vn 0.222782 0.908524 0.353487
vn -0.711083 -0.014412 0.702960
vn 0.554358 -0.055123 0.830451
vn 0.546735 0.150959 0.823585
vn 0.962921 -0.013338 -0.269453
vn -0.541915 -0.150906 -0.826774
vn -0.548793 0.055148 -0.834137
vn 0.132567 -0.406001 -0.904206
vn 0.638528 -0.768496 0.041177
vn -0.891360 -0.364136 -0.269967
vn -0.243856 -0.772176 0.586752
vn -0.034963 0.094395 0.994921
vn 0.003700 0.232763 0.972527
vn -0.618299 0.767188 0.170673
vn 0.911901 0.090455 0.400319
vn 0.877841 0.222301 0.424237
vn 0.425235 0.789628 -0.442338
vn -0.675104 -0.701331 0.228843
vn 0.204050 -0.936440 0.285382
vn 0.511742 -0.721048 -0.467130
vn -0.511974 -0.350538 -0.784223
vn 0.515835 0.350615 0.781655
vn -0.357751 0.582532 0.729843
vn -0.199022 0.936511 -0.288684
vn 0.824420 0.565137 0.030848
vn -0.988734 0.034031 -0.145766
vn -0.072887 -0.045968 0.996280
vn 0.928529 -0.043120 0.368748
vn 0.308580 0.037323 -0.950466
# 30 normals

vt 0.302424 0.000000 0.000000
vt 0.305596 0.000000 0.000000
vt 0.356612 0.000000 0.000000
vt 0.358529 0.000000 0.000000
vt 0.360947 0.000000 0.000000
vt 0.310138 0.000000 0.000000
vt 0.307958 0.000000 0.000000
vt 0.364474 0.000000 0.000000
vt 0.307339 0.000000 0.000000
vt 0.307350 0.000000 0.000000
vt 0.309326 0.000000 0.000000
vt 0.309328 0.000000 0.000000
vt 0.309681 0.000000 0.000000
vt 0.309680 0.000000 0.000000
vt 0.356758 0.000000 0.000000
vt 0.356759 0.000000 0.000000
vt 0.357335 0.000000 0.000000
vt 0.357325 0.000000 0.000000
vt 0.359313 0.000000 0.000000
vt 0.359312 0.000000 0.000000
vt 0.359824 0.000000 0.000000
vt 0.359823 0.000000 0.000000
vt 0.307043 0.000000 0.000000
vt 0.307044 0.000000 0.000000
vt 0.000000 1.000000 0.000000
# 25 texture coordinates

o Unten_Stativ_2
usemtl Mat_1
f 10/4/1 13/3/1 19/2/1 16/1/1
f 2/8/2 8/7/2 22/6/2 5/5/2
f 18/12/3 23/11/3 24/10/3 17/9/3
f 12/16/4 4/15/5 21/14/5 20/13/4
f 9/20/6 1/19/6 6/18/6 14/17/6
f 15/24/7 7/23/8 3/22/8 11/21/7
f 9/20/9 10/4/9 11/21/9
f 12/16/10 13/3/10 14/17/10
f 15/24/11 16/1/11 17/9/11
f 18/12/12 19/2/12 20/13/12
f 21/14/13 22/6/14 23/11/13
f 24/10/15 8/7/15 7/23/15
f 6/18/16 5/5/17 4/15/16
f 3/22/18 2/8/18 1/19/18
f 16/1/19 19/2/19 18/12/19 17/9/19
f 19/2/20 13/3/20 12/16/20 20/13/20
f 13/3/21 10/4/21 9/20/21 14/17/21
f 10/4/22 16/1/22 15/24/7 11/21/7
f 5/5/23 22/6/23 21/14/5 4/15/5
f 22/6/24 8/7/24 24/10/24 23/11/24
f 8/7/25 2/8/25 3/22/25 7/23/25
f 2/8/26 5/5/26 6/18/26 1/19/26
f 17/9/27 24/10/27 7/23/27 15/24/27
f 23/11/13 18/12/28 20/13/28 21/14/13
f 4/15/16 12/16/29 14/17/29 6/18/16
f 1/19/30 9/20/30 11/21/30 3/22/30

